<?xml version="1.0" encoding="UTF-8" standalone="no"?>
<!-- Created with Inkscape (http://www.inkscape.org/) -->

<svg
   xmlns:dc="http://purl.org/dc/elements/1.1/"
   xmlns:cc="http://creativecommons.org/ns#"
   xmlns:rdf="http://www.w3.org/1999/02/22-rdf-syntax-ns#"
   xmlns:svg="http://www.w3.org/2000/svg"
   xmlns="http://www.w3.org/2000/svg"
   xmlns:sodipodi="http://sodipodi.sourceforge.net/DTD/sodipodi-0.dtd"
   xmlns:inkscape="http://www.inkscape.org/namespaces/inkscape"
   width="171.40213"
   height="173.9594"
   id="svg2"
   version="1.1"
   inkscape:version="0.48.2 r9819"
   sodipodi:docname="Documento nuevo 1">
  <defs
     id="defs4" />
  <sodipodi:namedview
     id="base"
     pagecolor="#ffffff"
     bordercolor="#666666"
     borderopacity="1.0"
     inkscape:pageopacity="0.0"
     inkscape:pageshadow="2"
     inkscape:zoom="0.99394531"
     inkscape:cx="-107.95002"
     inkscape:cy="115.54051"
     inkscape:document-units="px"
     inkscape:current-layer="layer1"
     showgrid="false"
     fit-margin-top="0"
     fit-margin-left="0"
     fit-margin-right="0"
     fit-margin-bottom="0"
     inkscape:window-width="1600"
     inkscape:window-height="878"
     inkscape:window-x="-8"
     inkscape:window-y="-8"
     inkscape:window-maximized="1" />
  <metadata
     id="metadata7">
    <rdf:RDF>
      <cc:Work
         rdf:about="">
        <dc:format>image/svg+xml</dc:format>
        <dc:type
           rdf:resource="http://purl.org/dc/dcmitype/StillImage" />
        <dc:title></dc:title>
      </cc:Work>
    </rdf:RDF>
  </metadata>
  <g
     inkscape:label="Capa 1"
     inkscape:groupmode="layer"
     id="layer1"
     transform="translate(-291.44186,-473.9433)">
    <g
       transform="matrix(1.0132904,0,0,1.0132904,-22367.601,1670.5355)"
       id="g3821">
      <path
         style="fill:#000000;fill-opacity:1;fill-rule:nonzero;stroke:none"
         d="m 22361.845,-1168.6842 84.571,99.2217 84.583,-99.2217 -36.68,0 -3.341,2.5354 -27.476,10e-5 0,1.6004 -34.172,0 0,-1.6005 -25.938,0 -3.521,-2.5354 z"
         id="path3823"
         inkscape:connector-curvature="0"
         sodipodi:nodetypes="cccccccccccc" />
      <path
         sodipodi:type="star"
         style="fill:#dfdfdf;fill-opacity:1;fill-rule:nonzero;stroke:none"
         id="path3825"
         sodipodi:sides="3"
         sodipodi:cx="15934.768"
         sodipodi:cy="-364.0466"
         sodipodi:r1="175.66318"
         sodipodi:r2="87.831589"
         sodipodi:arg1="0.52359878"
         sodipodi:arg2="1.5707963"
         inkscape:flatsided="true"
         inkscape:rounded="0"
         inkscape:randomized="0"
         d="m 16086.896,-276.21501 -304.257,0 152.129,-263.49477 z"
         inkscape:transform-center-y="11.800305"
         transform="matrix(-0.38941341,0,0,-0.26870218,28651.634,-1237.1064)"
         inkscape:transform-center-x="0.00050321141" />
      <path
         style="fill:#000000;fill-opacity:1;fill-rule:nonzero;stroke:none"
         d="m 22386.702,-1180.8976 0,15.7421 0,15.7299 36.419,-7.8709 23.3,-5.0308 23.3,5.0308 36.418,7.8709 0,-15.7299 0,-15.7421 -36.418,7.871 -23.3,5.0307 -23.3,-5.0307 -36.419,-7.871 z"
         id="path3827"
         inkscape:connector-curvature="0" />
      <path
         sodipodi:nodetypes="cccc"
         inkscape:connector-curvature="0"
         id="path3829"
         d="m 22446.498,-1092.0852 -38.208,-45.4955 38.107,-24.5782 z"
         inkscape:transform-center-y="7.2976838"
         inkscape:transform-center-x="2.9109873e-005"
         style="opacity:0.71365638;fill:#ffffff;fill-opacity:1;fill-rule:nonzero;stroke:none" />
      <path
         sodipodi:nodetypes="ccccccccc"
         inkscape:connector-curvature="0"
         id="path3831"
         d="m 22446.455,-1162.3495 -23.3,5.0308 -26.649,5.7166 1.793,2.1424 c 17.197,-4.3836 48.156,-12.0714 48.156,-12.0714 l 46.907,13.6126 2.872,-3.6303 -26.491,-5.7699 z"
         style="opacity:0.33000004;fill:#000000;fill-opacity:1;fill-rule:nonzero;stroke:none" />
      <path
         inkscape:connector-curvature="0"
         id="path3833"
         d="m 22474.514,-1136.8775 8.173,24.9851 21.301,-24.9851 -29.474,0 z"
         style="fill:#ff0000;fill-opacity:1;fill-rule:nonzero;stroke:none" />
      <path
         style="opacity:0.4857143;fill:#000000;fill-opacity:0.39613528;stroke:none"
         d="m 22474.514,-1137.1115 13.927,18.4261 -5.76,6.8089 z"
         id="path3835"
         inkscape:connector-curvature="0"
         sodipodi:nodetypes="cccc" />
    </g>
    <g
       style="font-size:15.48074341px;font-style:normal;font-variant:normal;font-weight:normal;font-stretch:normal;text-align:center;line-height:150%;letter-spacing:-0.60264325px;word-spacing:0px;text-anchor:middle;fill:#ff0000;fill-opacity:1;stroke:none;font-family:LeckerliOne;-inkscape-font-specification:LeckerliOne"
       id="text3841">
      <path
         d="m 329.31493,643.70641 c 0.85949,-0.0455 1.65609,-0.39572 2.38981,-1.05074 0.7337,-0.65502 1.12394,-1.34196 1.17072,-2.06084 -0.002,-0.18029 -0.029,-0.32284 -0.0813,-0.42765 -0.0523,-0.10482 -0.11805,-0.15835 -0.19738,-0.16062 -0.10503,0.0237 -0.30265,0.1896 -0.59285,0.49768 -0.29022,0.30808 -0.60021,0.61616 -0.92998,0.92424 -0.32978,0.30808 -0.60652,0.47398 -0.83021,0.49767 -0.24053,-0.0156 -0.43031,-0.20115 -0.56934,-0.55672 -0.13905,-0.35558 -0.27035,-0.78769 -0.3939,-1.29636 -0.12356,-0.50865 -0.28238,-1.0004 -0.47645,-1.47523 0.63759,-0.22737 1.2007,-0.62406 1.68931,-1.19007 0.48859,-0.566 0.74596,-1.33035 0.77209,-2.29306 -0.0474,-1.13878 -0.50603,-1.9457 -1.37583,-2.42077 -0.86982,-0.47505 -1.86638,-0.70532 -2.98968,-0.69082 -0.93171,0.0202 -1.7258,0.1897 -2.38229,0.50857 -0.65649,0.31889 -1.15817,0.66615 -1.50505,1.04178 -0.34688,0.37565 -0.52175,0.6587 -0.52462,0.84914 6.5e-4,0.0545 0.0187,0.0964 0.0542,0.12578 0.0355,0.0294 0.0845,0.0442 0.14707,0.0445 0.43281,-0.0451 0.89851,-0.22574 1.39712,-0.54182 0.4986,-0.31605 1.31262,-0.49665 2.44206,-0.54181 0.83755,0.0103 1.44581,0.17545 1.82476,0.49537 0.37895,0.31994 0.56536,0.73276 0.55924,1.23845 -0.005,0.59859 -0.0958,1.06558 -0.27285,1.40099 -0.17706,0.33541 -0.4112,0.61664 -0.70243,0.84369 -0.10095,-0.0626 -0.21254,-0.11159 -0.33476,-0.14707 -0.12224,-0.0355 -0.25318,-0.0535 -0.39282,-0.0542 -0.28769,-3.2e-4 -0.53279,0.0506 -0.73533,0.15287 -0.20254,0.10224 -0.30832,0.25769 -0.31735,0.46635 0.008,0.25705 0.10804,0.46668 0.29994,0.6289 0.19189,0.16223 0.42732,0.26736 0.7063,0.31541 0.18165,0.71326 0.29995,1.44199 0.3549,2.1862 0.0549,0.74422 0.19503,1.37318 0.42027,1.88691 0.22523,0.51372 0.6841,0.78148 1.37662,0.80326 z m -4.52032,-8.54526 c -0.35796,0.58436 -0.69987,1.31462 -1.02573,2.19079 -0.32585,0.87618 -0.59323,1.76698 -0.80212,2.6724 -0.20889,0.90542 -0.31687,1.69416 -0.32394,2.36623 -0.004,0.4757 0.0461,0.84401 0.149,1.10492 0.10288,0.26091 0.28026,0.39314 0.53214,0.39669 0.19964,-0.005 0.3925,-0.0458 0.57859,-0.12384 0.18608,-0.078 0.37508,-0.16577 0.56697,-0.26317 0.2364,-0.11836 0.40217,-0.27639 0.49732,-0.47409 0.0951,-0.1977 0.14093,-0.42153 0.13739,-0.67147 l 0,-2.27564 c 0.012,-0.23851 0.0963,-0.65419 0.25284,-1.24705 0.15653,-0.59284 0.31305,-1.23213 0.46958,-1.91786 0.15652,-0.68573 0.2408,-1.28717 0.25285,-1.80435 3.2e-4,-0.21123 -0.0158,-0.377 -0.0484,-0.49731 -0.0326,-0.12029 -0.0835,-0.18156 -0.15287,-0.18383 -0.22898,0.011 -0.44055,0.0935 -0.6347,0.24769 -0.19416,0.15417 -0.3438,0.31413 -0.44894,0.47989 z"
         id="path3798"
         inkscape:connector-curvature="0" />
      <path
         d="m 333.65676,636.13643 c -0.17642,-0.003 -0.40024,0.0223 -0.67147,0.0755 -0.27123,0.0532 -0.50667,0.15191 -0.7063,0.29606 l -0.44893,3.80822 c -0.16965,0.31735 -0.29478,0.596 -0.37541,0.83595 -0.0806,0.23995 -0.12062,0.48763 -0.11997,0.74306 0.0122,0.63212 0.23543,1.09783 0.66953,1.39712 0.4341,0.29929 1.00559,0.44765 1.71447,0.44507 0.56181,-0.0107 1.02494,-0.14804 1.38938,-0.41217 0.36443,-0.26414 0.64953,-0.59117 0.8553,-0.98108 0.0326,0.3954 0.13384,0.7192 0.30381,0.9714 0.16996,0.2522 0.44538,0.3825 0.82627,0.39088 0.88077,-0.0455 1.66189,-0.39572 2.34337,-1.05074 0.68146,-0.65502 1.04073,-1.34196 1.07783,-2.06084 6.4e-4,-0.17835 -0.0161,-0.31316 -0.0503,-0.40443 -0.0342,-0.0913 -0.0897,-0.13707 -0.16642,-0.13739 -0.10952,0.0231 -0.30503,0.185 -0.58654,0.48563 -0.28152,0.30063 -0.58024,0.60126 -0.89615,0.90188 -0.31592,0.30063 -0.58024,0.46251 -0.79295,0.48563 -0.0613,-3.2e-4 -0.10514,-0.0229 -0.13158,-0.0677 -0.0265,-0.0448 -0.0394,-0.10997 -0.0387,-0.19544 0.0277,-0.56374 0.13867,-1.25908 0.33283,-2.086 0.19414,-0.82691 0.30509,-1.65383 0.33283,-2.48076 0.008,-0.3196 -0.0271,-0.56664 -0.10449,-0.74113 -0.0774,-0.17447 -0.24383,-0.26284 -0.49925,-0.2651 -0.55473,0.003 -0.96238,0.0942 -1.22296,0.27478 -0.2606,0.18061 -0.3896,0.43475 -0.38702,0.76241 -9.7e-4,0.14417 9.7e-4,0.35897 0.006,0.64438 0.005,0.28543 0.0184,0.51957 0.0406,0.70243 -0.0559,0.44416 -0.16083,0.94394 -0.31477,1.49932 -0.15395,0.55539 -0.36207,1.04026 -0.62438,1.4546 -0.26231,0.41434 -0.58396,0.63203 -0.96495,0.65305 -0.26608,-0.003 -0.44991,-0.0552 -0.5515,-0.15674 -0.10159,-0.10159 -0.14997,-0.23511 -0.14513,-0.40056 0.0303,-0.7221 0.15158,-1.39873 0.3638,-2.02989 0.2122,-0.63115 0.33347,-1.24972 0.36379,-1.85573 0.0113,-0.40797 -0.0345,-0.75693 -0.13739,-1.04687 -0.10289,-0.28993 -0.33058,-0.44151 -0.68308,-0.45474 z"
         id="path3800"
         inkscape:connector-curvature="0" />
      <path
         d="m 346.21583,642.59182 c 0.60244,-0.0474 1.05009,-0.29317 1.34294,-0.73727 0.29283,-0.44409 0.4386,-0.80208 0.43732,-1.07396 -0.005,-0.17318 -0.0532,-0.33766 -0.14513,-0.49344 -0.0919,-0.15577 -0.19835,-0.23898 -0.31928,-0.24962 -0.10245,0.0164 -0.22094,0.13149 -0.35548,0.34515 -0.13456,0.21368 -0.28975,0.42735 -0.46557,0.64101 -0.17583,0.21368 -0.37689,0.32873 -0.60316,0.34516 -0.36304,-0.0413 -0.60366,-0.33025 -0.72186,-0.86691 -0.11821,-0.53665 -0.25792,-1.07331 -0.41912,-1.60997 -0.16121,-0.53666 -0.48783,-0.82563 -0.97986,-0.86691 -0.25027,0.0255 -0.4928,0.20286 -0.72758,0.53214 -0.2348,0.32929 -0.39992,0.6576 -0.49538,0.98495 0.19931,0.20351 0.39281,0.42733 0.58052,0.67147 0.1877,0.24414 0.28832,0.5415 0.30187,0.89206 0.006,0.3251 -0.0568,0.61923 -0.18964,0.88239 -0.13288,0.26318 -0.37411,0.4025 -0.72371,0.41798 -0.24834,0.0213 -0.487,-0.091 -0.71598,-0.3367 -0.22898,-0.24575 -0.35154,-0.75274 -0.36766,-1.52097 0.003,-0.73725 0.0703,-1.43001 0.20125,-2.07826 0.13093,-0.64824 0.30638,-1.24037 0.52633,-1.77639 1.22974,-0.0635 2.29983,-0.30412 3.21028,-0.72178 0.91044,-0.41765 1.38841,-1.09556 1.43389,-2.03376 -0.003,-0.52246 -0.19094,-0.95204 -0.56504,-1.28875 -0.37412,-0.33669 -0.91852,-0.51085 -1.6332,-0.52247 -0.73598,0.02 -1.44679,0.34381 -2.13244,0.9714 -0.68567,0.62762 -1.29586,1.43906 -1.83058,2.43432 -0.25027,-0.0616 -0.4928,-0.1319 -0.72758,-0.21093 -0.23479,-0.079 -0.44636,-0.12222 -0.63471,-0.12964 -0.0693,0.003 -0.12029,0.0319 -0.15287,0.0871 -0.0326,0.0552 -0.0487,0.11902 -0.0484,0.19158 0.007,0.13578 0.11674,0.28607 0.32896,0.45087 0.21221,0.16481 0.48441,0.31897 0.8166,0.46248 -0.33574,0.73533 -0.59697,1.49388 -0.78371,2.27564 -0.18673,0.78177 -0.28155,1.54032 -0.28445,2.27564 0.0394,1.08783 0.37476,1.84186 1.00623,2.26209 0.63148,0.42023 1.32294,0.62084 2.0744,0.60181 0.72403,-0.01 1.30004,-0.15642 1.72801,-0.43926 0.42797,-0.28284 0.7292,-0.64212 0.90368,-1.07784 0.12255,0.0942 0.27606,0.169 0.46055,0.22447 0.18447,0.0555 0.40764,0.0839 0.66953,0.0851 z m -1.2694,-8.94776 c 0.12383,0.004 0.21672,0.0577 0.27865,0.16061 0.0619,0.10289 0.0929,0.22996 0.0929,0.38121 -0.0284,0.44024 -0.29672,0.79435 -0.80499,1.06235 -0.50828,0.26802 -1.08622,0.45572 -1.73382,0.56311 0.37572,-0.6863 0.76209,-1.2178 1.1591,-1.5945 0.39701,-0.37668 0.73307,-0.56761 1.00818,-0.57278 z"
         id="path3802"
         inkscape:connector-curvature="0" />
      <path
         d="m 348.57902,636.13643 c -0.17319,-0.003 -0.38411,0.0223 -0.63276,0.0755 -0.24866,0.0532 -0.47119,0.15191 -0.6676,0.29606 l -0.44894,3.66889 c -0.16964,0.31735 -0.29477,0.596 -0.3754,0.83595 -0.0806,0.23995 -0.12062,0.48764 -0.11998,0.74307 0.009,0.63212 0.21931,1.09783 0.63084,1.39712 0.41152,0.29929 0.97011,0.44764 1.67577,0.44506 0.49279,-0.007 0.90818,-0.10933 1.24618,-0.30767 0.33799,-0.19835 0.61406,-0.45184 0.82821,-0.76049 -0.0394,0.22479 -0.0845,0.44862 -0.13546,0.67147 -0.051,0.22286 -0.10385,0.44281 -0.15867,0.65986 -1.20684,0.24317 -2.2105,0.47667 -3.01097,0.70049 -0.80047,0.22383 -1.21587,0.65083 -1.24618,1.28102 0.0193,0.59374 0.26317,1.08202 0.73145,1.46485 0.46829,0.38281 1.04494,0.58083 1.72996,0.59406 1.08524,-0.0236 1.84056,-0.32477 2.26596,-0.90367 0.42539,-0.57892 0.74338,-1.29424 0.95399,-2.14599 1.09814,-0.52957 1.99408,-1.212 2.68781,-2.04731 0.69371,-0.8353 1.0517,-1.57191 1.07396,-2.20984 6.4e-4,-0.17835 -0.0161,-0.31316 -0.0503,-0.40443 -0.0342,-0.0913 -0.0897,-0.13707 -0.16642,-0.13739 -0.17964,0.0358 -0.49377,0.34734 -0.94238,0.93463 -0.44862,0.5873 -1.11492,1.23555 -1.99892,1.94475 0.33315,-1.09073 0.63437,-2.16018 0.90368,-3.20835 0.26929,-1.04815 0.41184,-1.80025 0.42765,-2.25628 -0.011,-0.2264 -0.13224,-0.52827 -0.3638,-0.90562 -0.23157,-0.37733 -0.50764,-0.58631 -0.82821,-0.62696 -0.1045,-0.003 -0.21286,0.0265 -0.32509,0.089 -0.11224,0.0626 -0.20512,0.17739 -0.27865,0.34445 -0.0621,0.15662 -0.16494,0.4712 -0.30846,0.94374 -0.14354,0.47254 -0.29567,0.99926 -0.45639,1.58016 -0.16074,0.58091 -0.29796,1.11221 -0.41167,1.59392 -0.13159,0.41959 -0.30574,0.76468 -0.52247,1.03526 -0.21673,0.27059 -0.52247,0.41056 -0.91722,0.41991 -0.26607,-0.003 -0.44991,-0.0552 -0.55149,-0.15674 -0.1016,-0.10159 -0.14997,-0.23511 -0.14513,-0.40056 0.0303,-0.71629 0.15157,-1.3697 0.36379,-1.96022 0.21221,-0.59051 0.33347,-1.18587 0.36379,-1.78607 0.0113,-0.40797 -0.0345,-0.75693 -0.13739,-1.04687 -0.10288,-0.28993 -0.33057,-0.44151 -0.68308,-0.45474 z m 0.031,10.57321 c -0.21189,-3.3e-4 -0.43055,-0.0577 -0.65598,-0.17222 -0.22544,-0.1145 -0.34735,-0.28414 -0.36573,-0.50892 0.005,-0.16868 0.21124,-0.2764 0.61729,-0.32316 0.40603,-0.0468 0.97946,-0.13513 1.72027,-0.2651 -0.16997,0.38475 -0.36412,0.69113 -0.58245,0.91915 -0.21835,0.22802 -0.46281,0.34476 -0.7334,0.35025 z"
         id="path3804"
         inkscape:connector-curvature="0" />
      <path
         d="m 364.00849,639.3409 c -0.28123,-9.6e-4 -0.55472,0.0164 -0.82047,0.0522 -0.26575,0.0358 -0.50828,0.0958 -0.72758,0.17996 0.0938,-0.48699 0.20027,-0.94108 0.31929,-1.36229 0.119,-0.42119 0.24478,-0.81337 0.37733,-1.17652 1.15749,-0.0622 2.13986,-0.36346 2.94711,-0.90368 0.80724,-0.5402 1.22844,-1.27101 1.2636,-2.19243 0.0168,-0.52246 -0.0942,-0.95204 -0.33283,-1.28875 -0.23867,-0.33669 -0.70566,-0.51085 -1.40099,-0.52247 -0.78403,0.0165 -1.51097,0.35896 -2.18082,1.02752 -0.66986,0.66857 -1.26909,1.56451 -1.79768,2.68781 -0.24705,-0.0548 -0.48054,-0.12319 -0.70049,-0.20512 -0.21996,-0.0819 -0.43024,-0.12706 -0.63084,-0.13545 -0.0693,0.003 -0.12029,0.0319 -0.15287,0.0871 -0.0326,0.0552 -0.0487,0.11902 -0.0484,0.19158 0.008,0.13578 0.11997,0.28607 0.3367,0.45087 0.21672,0.16481 0.4915,0.31897 0.82434,0.46248 -0.58472,1.44421 -1.03688,3.02193 -1.35649,4.73317 -0.3196,1.71125 -0.48151,3.3896 -0.4857,5.03505 -0.005,0.39862 0.11675,0.73532 0.36379,1.01011 0.24705,0.27477 0.64696,0.41797 1.19975,0.42958 0.6405,0.0148 1.19006,-0.1232 1.64868,-0.4141 0.4586,-0.29091 0.69855,-0.8237 0.71984,-1.59837 -0.004,-0.32863 -0.0336,-0.81521 -0.0883,-1.45976 -0.0547,-0.64454 -0.10932,-1.24006 -0.16397,-1.78657 -0.0547,-0.5465 -0.0841,-0.83699 -0.0883,-0.87149 -0.0126,0.0329 0.14029,0.16448 0.45861,0.39475 0.31831,0.23027 0.87755,0.36186 1.6777,0.39475 0.66792,-0.0148 1.15104,-0.22124 1.44937,-0.61922 0.29831,-0.39797 0.44473,-0.89851 0.43926,-1.50161 0.002,-0.11546 -0.0171,-0.22511 -0.0561,-0.32896 -0.039,-0.10385 -0.10805,-0.15932 -0.20705,-0.16642 -0.14481,0.0503 -0.33897,0.25156 -0.58245,0.60374 -0.24351,0.35219 -0.59633,0.55344 -1.05849,0.60375 -0.27414,0.006 -0.51151,-0.13352 -0.7121,-0.41798 -0.20061,-0.28445 -0.34509,-0.74887 -0.43346,-1.39325 z m -1.84218,6.33154 c -0.005,0.31413 -0.0568,0.5644 -0.15481,0.75081 -0.098,0.18641 -0.21157,0.28187 -0.34057,0.28639 -0.23479,-0.003 -0.35347,-0.19867 -0.35605,-0.58826 -0.002,-0.15062 0.0406,-0.56536 0.12771,-1.24425 0.0871,-0.67889 0.23027,-1.4613 0.42959,-2.34724 0.0935,0.62148 0.16577,1.23232 0.21673,1.83251 0.051,0.60019 0.0768,1.03687 0.0774,1.31004 z m 3.32832,-12.02838 c 0.18576,0.003 0.27864,0.13676 0.27864,0.4025 -0.0226,0.50635 -0.25221,0.90626 -0.68888,1.19974 -0.43669,0.29349 -0.94496,0.55408 -1.52483,0.78176 0.38056,-0.79691 0.74564,-1.39356 1.09525,-1.78993 0.34959,-0.39636 0.62953,-0.59438 0.83982,-0.59407 z"
         id="path3806"
         inkscape:connector-curvature="0" />
      <path
         d="m 370.92899,636.77113 c -0.21608,0.0245 -0.46893,0.12256 -0.75854,0.29413 -0.28962,0.17158 -0.61987,0.26963 -0.99076,0.29413 -0.11546,6.5e-4 -0.22124,-0.005 -0.31735,-0.0155 -0.0961,-0.011 -0.18641,-0.0316 -0.27091,-0.0619 -0.0539,-0.28251 -0.20157,-0.60761 -0.44313,-0.97528 -0.24156,-0.36765 -0.57891,-0.5689 -1.01204,-0.60374 -0.38508,0.004 -0.6676,0.0932 -0.84756,0.26898 -0.17996,0.17577 -0.26897,0.41637 -0.26704,0.72178 0.004,0.19609 0.07,0.39992 0.19931,0.61148 0.12933,0.21157 0.30026,0.4154 0.5128,0.61148 -0.318,0.60536 -0.53344,1.23684 -0.64632,1.89443 -0.11288,0.65761 -0.16577,1.51742 -0.15867,2.57945 -0.004,0.47635 0.0461,0.84724 0.149,1.11266 0.10288,0.26543 0.28026,0.40024 0.53214,0.40443 0.51376,-0.021 0.88336,-0.13384 1.1088,-0.33863 0.22543,-0.2048 0.33573,-0.37573 0.33089,-0.5128 -0.004,-0.22576 -0.0193,-0.52892 -0.0464,-0.90948 -0.0271,-0.38056 -0.0426,-0.78435 -0.0464,-1.21135 0.006,-0.26543 0.0522,-0.59374 0.13932,-0.98495 0.0871,-0.3912 0.17996,-0.78531 0.27865,-1.18233 0.0626,0.008 0.12707,0.0152 0.19351,0.0213 0.0664,0.006 0.13094,0.009 0.19351,0.01 0.1032,10e-6 0.26445,-0.0116 0.48377,-0.0348 0.2193,-0.0232 0.38829,-0.058 0.50698,-0.10449 -0.21995,0.44023 -0.3954,0.92593 -0.52634,1.4571 -0.13094,0.53118 -0.19802,1.0672 -0.20124,1.60805 -9.7e-4,0.53633 0.11707,0.99623 0.35412,1.3797 0.23704,0.38346 0.59889,0.58407 1.08557,0.6018 0.86658,-0.0455 1.59094,-0.39572 2.17308,-1.05074 0.58212,-0.65502 0.88464,-1.34196 0.90755,-2.06084 6.3e-4,-0.17835 -0.0161,-0.31316 -0.0503,-0.40443 -0.0342,-0.0913 -0.0897,-0.13707 -0.16641,-0.13739 -0.10952,0.0231 -0.30503,0.185 -0.58654,0.48563 -0.28153,0.30063 -0.58024,0.60126 -0.89615,0.90188 -0.31593,0.30063 -0.58024,0.46251 -0.79295,0.48563 -0.0613,-3.2e-4 -0.10515,-0.0229 -0.13159,-0.0677 -0.0265,-0.0448 -0.0394,-0.10997 -0.0387,-0.19544 0.0148,-0.29219 0.12062,-0.75661 0.31735,-1.39325 0.19673,-0.63663 0.3954,-1.36421 0.596,-2.18275 -0.0961,-0.30542 -0.22124,-0.59632 -0.3754,-0.87272 -0.15416,-0.27638 -0.318,-0.42409 -0.49151,-0.44313 z"
         id="path3808"
         inkscape:connector-curvature="0" />
      <path
         d="m 377.27769,636.35316 c -0.32509,-0.0619 -0.63471,-0.0929 -0.92883,-0.0929 -0.64729,0.0158 -1.23748,0.18545 -1.77059,0.50893 -0.53311,0.32348 -0.98011,0.70598 -1.341,1.14749 -0.39314,0.48893 -0.68276,1.03204 -0.86885,1.62933 -0.18609,0.59729 -0.27832,1.19458 -0.27671,1.79187 0.0113,0.7521 0.2364,1.34552 0.67534,1.78026 0.43894,0.43475 1.02397,0.65664 1.75511,0.66567 0.70468,-0.008 1.27681,-0.15062 1.7164,-0.42765 0.43958,-0.27704 0.79112,-0.64019 1.05461,-1.08945 0.0835,0.43249 0.21447,0.77887 0.39282,1.03914 0.17834,0.26026 0.41378,0.39378 0.7063,0.40055 0.85949,-0.0455 1.65609,-0.39572 2.38981,-1.05074 0.7337,-0.65502 1.12394,-1.34196 1.17072,-2.06084 -0.002,-0.18029 -0.029,-0.32284 -0.0813,-0.42765 -0.0522,-0.10482 -0.11805,-0.15835 -0.19737,-0.16062 -0.10503,0.0237 -0.30265,0.1896 -0.59285,0.49768 -0.29022,0.30808 -0.60022,0.61616 -0.92998,0.92424 -0.32978,0.30808 -0.60652,0.47398 -0.83022,0.49767 -0.11514,-0.008 -0.19835,-0.13094 -0.24962,-0.36766 -0.0513,-0.23672 -0.0764,-0.5373 -0.0755,-0.90174 -0.002,-0.3925 0.005,-0.75306 0.0213,-1.08171 0.0158,-0.32863 0.05,-0.63889 0.10256,-0.93076 0.11545,-0.19125 0.2251,-0.3854 0.32896,-0.58246 0.10384,-0.19705 0.20575,-0.41055 0.30574,-0.64051 -0.0223,-0.28025 -0.19061,-0.57116 -0.50505,-0.87271 -0.31446,-0.30154 -0.64149,-0.46473 -0.98108,-0.48957 -0.10805,10e-4 -0.20545,0.0413 -0.2922,0.11997 -0.0868,0.0787 -0.16481,0.18835 -0.23414,0.32896 -0.10837,-0.0593 -0.26318,-0.11093 -0.46442,-0.1548 z m -2.02795,5.77424 c -0.34154,-0.0119 -0.57569,-0.13513 -0.70243,-0.3696 -0.12675,-0.23446 -0.18674,-0.5086 -0.17996,-0.8224 0.0358,-1.04784 0.36669,-1.87798 0.99269,-2.49044 0.62599,-0.61244 1.33229,-0.98978 2.1189,-1.13201 -0.11353,0.51764 -0.19222,1.05752 -0.23608,1.61965 -0.0439,0.56214 -0.0684,1.01301 -0.0735,1.35261 -0.19803,0.65245 -0.47539,1.12396 -0.83208,1.41454 -0.3567,0.29058 -0.71921,0.43313 -1.08751,0.42765 z"
         id="path3810"
         inkscape:connector-curvature="0" />
      <path
         d="m 386.86184,640.9354 0,-0.031 c 0.14351,-0.56311 0.36734,-1.10492 0.67147,-1.62546 0.30412,-0.52053 0.61696,-0.79918 0.93851,-0.83595 0.22769,0.003 0.38378,0.0513 0.46829,0.14513 0.0845,0.0939 0.12448,0.21576 0.11997,0.36573 -0.0142,0.44733 -0.071,0.884 -0.17028,1.31004 -0.0993,0.42604 -0.15611,0.89755 -0.17029,1.41453 -0.009,0.5315 0.0668,0.99721 0.2264,1.39712 0.15964,0.39992 0.4557,0.61019 0.8882,0.63083 0.88077,-0.0455 1.66189,-0.39572 2.34337,-1.05074 0.68145,-0.65502 1.04073,-1.34196 1.07783,-2.06084 6.3e-4,-0.17835 -0.0161,-0.31316 -0.0503,-0.40443 -0.0342,-0.0913 -0.0897,-0.13707 -0.16642,-0.13739 -0.10952,0.0231 -0.30504,0.185 -0.58654,0.48563 -0.28153,0.30063 -0.58025,0.60126 -0.89615,0.90188 -0.31593,0.30063 -0.58025,0.46251 -0.79295,0.48563 -0.0458,-6.4e-4 -0.0781,-0.0187 -0.0968,-0.0542 -0.0187,-0.0355 -0.0277,-0.0845 -0.0271,-0.14706 0.0251,-0.2751 0.12577,-0.71953 0.30187,-1.33327 0.17608,-0.61373 0.2767,-1.27875 0.30187,-1.99505 -0.001,-0.50053 -0.14579,-0.89271 -0.43346,-1.17652 -0.28769,-0.28381 -0.71082,-0.42829 -1.2694,-0.43346 -0.51796,0.009 -0.96819,0.12611 -1.35068,0.35025 -0.38251,0.22415 -0.70115,0.49958 -0.95592,0.82627 l 0,-0.17028 c -0.0174,-0.46409 -0.19545,-0.83627 -0.53408,-1.11654 -0.33865,-0.28025 -0.7334,-0.42409 -1.18426,-0.43152 -0.36412,0.006 -0.69244,0.0948 -0.98495,0.26704 -0.29252,0.17223 -0.54731,0.39283 -0.76435,0.6618 -0.0906,-0.26156 -0.23834,-0.52795 -0.44314,-0.79919 -0.20479,-0.27122 -0.43378,-0.41764 -0.68694,-0.43926 -0.10063,-10e-4 -0.20125,0.0323 -0.30188,0.10062 -0.10062,0.0684 -0.20124,0.17933 -0.30187,0.33284 -0.57923,0.89336 -0.93399,1.80026 -1.06428,2.7207 -0.1303,0.92045 -0.18319,2.02086 -0.15868,3.30123 -0.004,0.47635 0.0461,0.84724 0.149,1.11266 0.10288,0.26543 0.28026,0.40024 0.53215,0.40443 0.11094,-0.003 0.22962,-0.0284 0.35605,-0.0774 0.5086,-0.1977 0.85755,-0.38282 1.04687,-0.55537 0.18931,-0.17254 0.27897,-0.35379 0.26897,-0.54375 -0.0135,-0.21221 -0.0677,-0.46119 -0.16254,-0.74694 -0.0948,-0.28574 -0.149,-0.63534 -0.16255,-1.0488 0.01,-0.35424 0.11257,-0.76552 0.30904,-1.23386 0.19647,-0.46833 0.42906,-0.88076 0.69777,-1.2373 0.26871,-0.35652 0.51621,-0.5442 0.74249,-0.56303 0.17577,6.5e-4 0.30026,0.0458 0.37347,0.13546 0.0732,0.0897 0.10868,0.21995 0.10643,0.39088 -0.01,0.33832 -0.0484,0.85756 -0.1161,1.55773 -0.0677,0.70017 -0.10644,1.50194 -0.11611,2.40529 -0.004,0.47635 0.0461,0.84724 0.149,1.11266 0.10288,0.26543 0.28026,0.40024 0.53215,0.40443 0.11094,-0.003 0.22962,-0.0284 0.35605,-0.0774 0.50859,-0.1977 0.85755,-0.38282 1.04687,-0.55537 0.18931,-0.17254 0.27897,-0.35379 0.26898,-0.54375 -0.0136,-0.21221 -0.0677,-0.46119 -0.16255,-0.74694 -0.0948,-0.28574 -0.14901,-0.63534 -0.16255,-1.0488 z"
         id="path3812"
         inkscape:connector-curvature="0" />
      <path
         d="m 395.49398,641.97259 c -0.31251,0.01 -0.6318,-0.0564 -0.95786,-0.19931 -0.32606,-0.14287 -0.50215,-0.42216 -0.52827,-0.83788 l 0,-0.38702 c 0.86884,-0.33573 1.6777,-0.67436 2.42658,-1.01591 0.74886,-0.34153 1.14748,-0.94721 1.19587,-1.81703 -0.002,-0.44118 -0.15643,-0.79724 -0.46248,-1.06815 -0.30607,-0.27091 -0.75049,-0.41023 -1.33327,-0.41798 -1.11234,0.0281 -2.06504,0.5099 -2.85809,1.4455 -0.79306,0.93561 -1.20781,2.15663 -1.24425,3.66308 0.0271,0.83885 0.30961,1.45227 0.84756,1.84025 0.53795,0.38798 1.16878,0.57955 1.8925,0.57472 1.17355,-0.0229 2.10143,-0.23164 2.78363,-0.62611 0.68219,-0.39446 1.16743,-0.83709 1.45574,-1.32788 0.2883,-0.49079 0.42838,-0.89214 0.42027,-1.20404 6.4e-4,-0.17835 -0.0161,-0.31316 -0.0503,-0.40443 -0.0342,-0.0913 -0.0897,-0.13707 -0.16642,-0.13739 -0.11649,0.0237 -0.31353,0.18959 -0.59113,0.49767 -0.2776,0.30808 -0.64894,0.61616 -1.11402,0.92424 -0.46509,0.30809 -1.03711,0.47398 -1.71605,0.49767 z m -0.26317,-4.36551 c 0.16222,0.002 0.28284,0.0371 0.36186,0.10643 0.079,0.0693 0.11836,0.16287 0.11804,0.28058 -0.0123,0.30381 -0.16965,0.55924 -0.47216,0.76629 -0.30252,0.20706 -0.67663,0.44701 -1.12234,0.71985 0.0755,-0.50473 0.20318,-0.93883 0.38315,-1.3023 0.17996,-0.36347 0.42377,-0.55375 0.73145,-0.57085 z"
         id="path3814"
         inkscape:connector-curvature="0" />
      <path
         d="m 399.42674,636.13643 c -0.6963,0.005 -1.14201,0.17255 -1.33713,0.50118 -0.19512,0.32865 -0.28091,0.78597 -0.25736,1.37196 4.8e-4,0.24004 0.0392,0.66269 0.1161,1.26796 0.0769,0.60527 0.18915,1.25336 0.3367,1.94426 0.14755,0.6909 0.32751,1.2848 0.53989,1.78171 0.21237,0.49691 0.45425,0.75702 0.72565,0.78032 0.33476,-0.008 0.74113,-0.15803 1.21909,-0.44894 0.47796,-0.2909 0.96946,-0.67276 1.47452,-1.14556 0.27091,0.47958 0.54181,0.86336 0.81273,1.15137 0.2709,0.288 0.49537,0.43571 0.6734,0.44313 0.38991,-0.0158 0.83691,-0.23576 1.34101,-0.65986 0.50407,-0.4241 1.00139,-0.95754 1.49193,-1.6003 0.20092,0.26639 0.43764,0.47667 0.71017,0.63083 0.27252,0.15416 0.58277,0.23285 0.93077,0.23608 0.53439,0.002 0.98655,-0.14481 1.35648,-0.43926 0.36991,-0.29445 0.56277,-0.74661 0.57859,-1.35648 6.3e-4,-0.179 -0.0161,-0.31639 -0.0503,-0.41217 -0.0342,-0.0958 -0.0897,-0.14416 -0.16642,-0.14513 -0.1703,0.0394 -0.36767,0.19673 -0.59213,0.47215 -0.22448,0.27543 -0.61536,0.43282 -1.17265,0.47216 -0.16997,-0.002 -0.31768,-0.0603 -0.44313,-0.17609 -0.12547,-0.11578 -0.23061,-0.27897 -0.31542,-0.48957 0.33024,-0.53505 0.5947,-1.04397 0.79338,-1.52677 0.19866,-0.4828 0.30057,-0.88723 0.30574,-1.21329 0.0139,-0.3583 -0.0564,-0.65953 -0.21092,-0.90368 -0.15449,-0.24413 -0.47636,-0.3712 -0.9656,-0.38121 -0.65213,0.0255 -1.09719,0.24157 -1.3352,0.64825 -0.23802,0.4067 -0.35025,0.85112 -0.3367,1.33326 -9.7e-4,0.24963 0.0126,0.50893 0.0406,0.7779 0.0281,0.26898 0.0764,0.53602 0.14513,0.80112 -0.27576,0.51215 -0.5486,0.95077 -0.81854,1.31585 -0.26995,0.36508 -0.50796,0.55601 -0.71404,0.57278 -0.17126,-0.004 -0.33574,-0.0774 -0.49344,-0.2206 -0.15771,-0.1432 -0.30284,-0.33283 -0.43539,-0.56891 0.40281,-0.50215 0.73113,-1.01107 0.98495,-1.52677 0.25381,-0.51569 0.38475,-0.99752 0.39282,-1.4455 -0.009,-0.40281 -0.16094,-0.73112 -0.45474,-0.98495 -0.29382,-0.25381 -0.67373,-0.38475 -1.13976,-0.39281 -0.67921,0.009 -1.18233,0.19254 -1.50935,0.55149 -0.32703,0.35896 -0.48958,0.84079 -0.48764,1.4455 0.002,0.39798 0.0519,0.80563 0.149,1.22296 0.0971,0.41733 0.22802,0.82499 0.39282,1.22296 -0.21931,0.20448 -0.43088,0.36831 -0.6347,0.49151 -0.20383,0.1232 -0.38444,0.18641 -0.54182,0.18964 -0.35509,-0.0219 -0.5544,-0.27607 -0.59793,-0.76242 -0.0435,-0.48635 -0.0764,-1.07332 -0.0987,-1.76091 0.11029,-0.39701 0.19931,-0.81047 0.26704,-1.24038 0.0677,-0.4299 0.10255,-0.76983 0.10449,-1.01978 -0.001,-0.23672 -0.0684,-0.42894 -0.20125,-0.57665 -0.13287,-0.14771 -0.3238,-0.22382 -0.57278,-0.22834 z m 3.28188,2.60073 c -0.004,-0.24478 0.0155,-0.44409 0.058,-0.59794 0.0426,-0.15383 0.13158,-0.23317 0.26704,-0.23801 0.10836,0.003 0.18963,0.051 0.24382,0.1432 0.0542,0.0922 0.0813,0.20963 0.0813,0.35218 -0.002,0.15803 -0.0484,0.34509 -0.13932,0.56117 -0.091,0.21608 -0.2148,0.44184 -0.37154,0.67727 -0.0464,-0.17963 -0.0813,-0.34669 -0.10449,-0.50118 -0.0232,-0.15448 -0.0348,-0.28671 -0.0348,-0.39669 z"
         id="path3816"
         inkscape:connector-curvature="0" />
      <path
         d="m 413.01773,636.22931 c -1.32133,0.0416 -2.35531,0.50022 -3.10192,1.37584 -0.74661,0.87562 -1.12653,1.91862 -1.13975,3.129 -0.007,0.81112 0.25865,1.51484 0.79725,2.11116 0.53859,0.59632 1.3926,0.90916 2.56203,0.93851 0.61341,-0.008 1.17071,-0.1432 1.6719,-0.40637 0.50117,-0.26317 0.93463,-0.60761 1.30036,-1.03332 0.30703,0.0619 0.63728,0.0929 0.99076,0.0929 0.53439,-3.2e-4 0.98655,-0.15448 1.35648,-0.46248 0.36991,-0.308 0.56277,-0.7679 0.57858,-1.3797 6.4e-4,-0.179 -0.0161,-0.31639 -0.0503,-0.41217 -0.0342,-0.0958 -0.0897,-0.14416 -0.16641,-0.14513 -0.1703,0.0394 -0.36768,0.19673 -0.59213,0.47215 -0.22448,0.27543 -0.61536,0.43282 -1.17266,0.47216 l -0.0929,0 c 0.11642,-0.2722 0.20479,-0.5444 0.26511,-0.8166 0.0603,-0.2722 0.0906,-0.53665 0.0909,-0.79338 3.2e-4,-0.49021 -0.12417,-0.89141 -0.37346,-1.20361 -0.24931,-0.31219 -0.62536,-0.47344 -1.12815,-0.48377 -0.6676,0.0255 -1.17459,0.24157 -1.52096,0.64825 -0.34638,0.40669 -0.52054,0.85111 -0.52247,1.33326 0.002,0.46604 0.0984,0.88078 0.28832,1.24425 0.18996,0.36347 0.46022,0.66599 0.8108,0.90755 -0.3251,0.20383 -0.71211,0.30703 -1.16104,0.30961 -0.55666,-0.0113 -0.97206,-0.17061 -1.24619,-0.47796 -0.27413,-0.30735 -0.41088,-0.69501 -0.41023,-1.16298 0.0164,-0.92141 0.30477,-1.66383 0.86497,-2.22726 0.5602,-0.56342 1.29359,-0.85304 2.20018,-0.86885 0.44312,-0.002 0.7566,-0.0255 0.94044,-0.0716 0.18382,-0.0461 0.27284,-0.10481 0.26704,-0.1761 -0.0245,-0.23445 -0.26576,-0.4428 -0.72372,-0.62502 -0.45797,-0.18222 -0.9856,-0.27832 -1.58288,-0.28833 z m 1.54805,3.29736 c 0.002,-0.13287 0.0329,-0.26188 0.0929,-0.38702 0.06,-0.12513 0.13738,-0.19221 0.2322,-0.20124 0.12255,0.005 0.21027,0.0571 0.26317,0.15674 0.0529,0.0997 0.0787,0.2177 0.0774,0.35412 6.3e-4,0.15706 -0.02,0.33057 -0.0619,0.52053 -0.0419,0.18996 -0.10901,0.38282 -0.20124,0.57858 -0.13192,-0.13255 -0.2319,-0.28542 -0.29994,-0.45861 -0.0681,-0.17318 -0.10224,-0.36088 -0.10256,-0.5631 z"
         id="path3818"
         inkscape:connector-curvature="0" />
      <path
         d="m 421.8888,636.77113 c -0.21608,0.0245 -0.46893,0.12256 -0.75854,0.29413 -0.28962,0.17158 -0.61988,0.26963 -0.99076,0.29413 -0.11546,6.5e-4 -0.22125,-0.005 -0.31735,-0.0155 -0.0961,-0.011 -0.18641,-0.0316 -0.27091,-0.0619 -0.0539,-0.28251 -0.20157,-0.60761 -0.44313,-0.97528 -0.24156,-0.36765 -0.57891,-0.5689 -1.01204,-0.60374 -0.38508,0.004 -0.6676,0.0932 -0.84756,0.26898 -0.17996,0.17577 -0.26898,0.41637 -0.26704,0.72178 0.004,0.19609 0.07,0.39992 0.19931,0.61148 0.12933,0.21157 0.30026,0.4154 0.5128,0.61148 -0.318,0.60536 -0.53344,1.23684 -0.64632,1.89443 -0.11288,0.65761 -0.16577,1.51742 -0.15867,2.57945 -0.004,0.47635 0.0461,0.84724 0.149,1.11266 0.10288,0.26543 0.28026,0.40024 0.53214,0.40443 0.51376,-0.021 0.88336,-0.13384 1.10879,-0.33863 0.22544,-0.2048 0.33574,-0.37573 0.3309,-0.5128 -0.004,-0.22576 -0.0193,-0.52892 -0.0464,-0.90948 -0.0271,-0.38056 -0.0426,-0.78435 -0.0464,-1.21135 0.006,-0.26543 0.0522,-0.59374 0.13932,-0.98495 0.0871,-0.3912 0.17996,-0.78531 0.27865,-1.18233 0.0626,0.008 0.12707,0.0152 0.19351,0.0213 0.0664,0.006 0.13094,0.009 0.19351,0.01 0.1032,10e-6 0.26445,-0.0116 0.48376,-0.0348 0.21931,-0.0232 0.3883,-0.058 0.50699,-0.10449 -0.21996,0.44023 -0.3954,0.92593 -0.52634,1.4571 -0.13094,0.53118 -0.19802,1.0672 -0.20124,1.60805 -9.8e-4,0.53633 0.11706,0.99623 0.35411,1.3797 0.23704,0.38346 0.5989,0.58407 1.08558,0.6018 0.86658,-0.0455 1.59094,-0.39572 2.17308,-1.05074 0.58212,-0.65502 0.88464,-1.34196 0.90754,-2.06084 6.4e-4,-0.17835 -0.0161,-0.31316 -0.0503,-0.40443 -0.0342,-0.0913 -0.0897,-0.13707 -0.16641,-0.13739 -0.10952,0.0231 -0.30503,0.185 -0.58654,0.48563 -0.28153,0.30063 -0.58024,0.60126 -0.89616,0.90188 -0.31592,0.30063 -0.58023,0.46251 -0.79294,0.48563 -0.0613,-3.2e-4 -0.10515,-0.0229 -0.13159,-0.0677 -0.0265,-0.0448 -0.0394,-0.10997 -0.0387,-0.19544 0.0148,-0.29219 0.12061,-0.75661 0.31735,-1.39325 0.19673,-0.63663 0.39539,-1.36421 0.596,-2.18275 -0.0961,-0.30542 -0.22125,-0.59632 -0.3754,-0.87272 -0.15417,-0.27638 -0.318,-0.42409 -0.49151,-0.44313 z"
         id="path3820"
         inkscape:connector-curvature="0" />
      <path
         d="m 425.71417,640.23877 c 0.31574,0.87595 0.69436,1.66287 1.13589,2.36079 0.44151,0.69791 1.00203,1.06686 1.68157,1.10685 0.87432,-0.0455 1.62964,-0.39572 2.26596,-1.05074 0.63631,-0.65502 0.96979,-1.34196 1.00044,-2.06084 6.3e-4,-0.17835 -0.0161,-0.31316 -0.0503,-0.40443 -0.0342,-0.0913 -0.0897,-0.13707 -0.16641,-0.13739 -0.16303,0.0231 -0.35817,0.185 -0.5854,0.48563 -0.22724,0.30063 -0.4992,0.60126 -0.81588,0.90188 -0.31669,0.30063 -0.6907,0.46251 -1.12205,0.48563 -0.44765,-0.0284 -0.77532,-0.22317 -0.98302,-0.58439 -0.2077,-0.36121 -0.3496,-0.71855 -0.42571,-1.07203 0.5889,-0.004 1.18361,-0.19769 1.78413,-0.58245 0.60051,-0.38475 0.92431,-0.93883 0.97141,-1.66222 -0.003,-0.55504 -0.179,-0.98914 -0.52828,-1.30231 -0.34928,-0.31315 -0.85434,-0.47247 -1.51516,-0.47796 -0.64535,0.0158 -1.16588,0.18545 -1.5616,0.50893 -0.39572,0.32348 -0.69566,0.70598 -0.8998,1.14749 l 0.1548,-1.30036 c 0.3667,-0.54923 0.70146,-1.04913 1.0043,-1.49968 0.30284,-0.45054 0.46345,-0.94656 0.48184,-1.48807 -0.009,-0.21898 -0.12611,-0.51633 -0.35025,-0.89207 -0.22415,-0.37571 -0.49958,-0.58405 -0.82628,-0.62502 -0.10127,-0.002 -0.20447,0.029 -0.30961,0.0929 -0.10514,0.0639 -0.20834,0.17223 -0.30961,0.32509 -0.50704,0.80051 -0.93781,1.8054 -1.29234,3.01469 -0.35452,1.20931 -0.62476,2.43323 -0.81072,3.67176 -0.18596,1.23854 -0.2796,2.30192 -0.28094,3.19014 -0.002,0.4757 0.0558,0.84401 0.17222,1.10492 0.11643,0.26091 0.30155,0.39314 0.55536,0.39669 0.25285,-0.003 0.48248,-0.0516 0.68889,-0.14706 0.2064,-0.0955 0.40507,-0.22189 0.596,-0.37928 0.11126,-0.099 0.17899,-0.24156 0.20318,-0.42765 0.0242,-0.18609 0.0339,-0.37895 0.029,-0.57858 0.004,-0.31864 0.0197,-0.66824 0.0484,-1.04881 0.0287,-0.38056 0.0487,-0.7379 0.06,-1.07203 z m 1.91959,-2.33756 c 0.22833,0.003 0.38701,0.0552 0.47603,0.15674 0.089,0.1016 0.13157,0.23512 0.12771,0.40056 -0.0132,0.37734 -0.23834,0.69082 -0.67534,0.94044 -0.43701,0.24963 -1.00656,0.40057 -1.70866,0.45281 0.22511,-0.5215 0.4986,-0.97237 0.82047,-1.35261 0.32186,-0.38024 0.64179,-0.57955 0.95979,-0.59794 z"
         id="path3822"
         inkscape:connector-curvature="0" />
    </g>
    <g
       style="font-size:27.92197418px;font-style:normal;font-variant:normal;font-weight:bold;font-stretch:normal;text-align:center;line-height:150%;letter-spacing:0px;word-spacing:0px;text-anchor:middle;fill:#000000;fill-opacity:1;stroke:none;font-family:Montserrat;-inkscape-font-specification:Montserrat Bold"
       id="text3864">
      <path
         d="m 317.63446,602.98728 c 2.99658,2e-5 5.17898,0.58173 6.5472,1.74512 1.36819,1.16344 2.05229,2.95045 2.05231,5.36106 -2e-5,2.41063 -0.70273,4.17436 -2.10812,5.29118 -1.40543,1.11684 -3.55076,1.67526 -6.436,1.67525 l -2.59638,0 0,5.44499 -4.35599,0 0,-19.5176 6.89698,0 z m 0.39027,10.30373 c 1.45199,10e-6 2.43859,-0.29326 2.95981,-0.87981 0.52119,-0.58652 0.7818,-1.44289 0.78181,-2.56911 -10e-6,-1.1262 -0.33972,-1.92661 -1.01912,-2.40125 -0.67943,-0.47461 -1.73576,-0.71192 -3.169,-0.71194 l -2.48476,0 0,6.56211 2.93126,0 z"
         id="path3783"
         inkscape:connector-curvature="0" />
      <path
         d="m 343.56676,622.50488 -1.815,-4.21624 -8.18112,0 -1.81499,4.21624 -4.63549,0 8.43249,-19.5176 4.21625,0 8.43249,19.5176 z m -5.89235,-13.70961 -2.45663,5.66824 4.886,0 z"
         id="path3785"
         inkscape:connector-curvature="0" />
      <path
         d="m 357.33602,602.98728 c 3.48058,2e-5 6.15166,0.8517 8.01325,2.55505 1.86156,1.70339 2.79235,4.07211 2.79237,7.10618 -2e-5,3.03409 -0.90752,5.43534 -2.72249,7.20375 -1.81502,1.76842 -4.58381,2.65262 -8.30638,2.65262 l -6.67373,0 0,-19.5176 6.89698,0 z m 0.22325,15.66436 c 1.99166,0 3.52262,-0.5026 4.59288,-1.50781 1.07024,-1.0052 1.60536,-2.46643 1.60538,-4.38369 -2e-5,-1.91724 -0.53514,-3.39238 -1.60538,-4.42544 -1.07026,-1.03302 -2.71285,-1.54955 -4.92775,-1.54956 l -2.42937,0 0,11.8665 2.76424,0 z"
         id="path3787"
         inkscape:connector-curvature="0" />
      <path
         d="m 387.75809,609.46503 c -2e-5,3.12726 -1.23813,5.14704 -3.71435,6.05936 l 4.94224,6.98049 -5.36063,0 -4.32787,-6.22637 -3.01562,0 0,6.22637 -4.35599,0 0,-19.5176 7.39973,0 c 3.03407,2e-5 5.198,0.512 6.49181,1.53593 1.29377,1.02397 1.94066,2.67124 1.94068,4.94182 z m -8.2936,3.04374 c 1.48948,10e-6 2.50406,-0.24199 3.04374,-0.726 0.53966,-0.48399 0.8095,-1.25188 0.80951,-2.30368 -1e-5,-1.05178 -0.27922,-1.77309 -0.83763,-2.16394 -0.55843,-0.39082 -1.53551,-0.58623 -2.93126,-0.58625 l -3.26699,0 0,5.77987 3.18263,0 z"
         id="path3789"
         inkscape:connector-curvature="0" />
      <path
         d="m 392.21293,602.98728 4.35599,0 0,19.5176 -4.35599,0 z"
         id="path3791"
         inkscape:connector-curvature="0" />
      <path
         d="m 415.02905,602.98728 4.35514,0 0,19.5176 -4.35514,0 -9.29824,-12.22949 0,12.22949 -4.35599,0 0,-19.5176 4.0765,0 9.57773,12.56523 z"
         id="path3793"
         inkscape:connector-curvature="0" />
      <path
         d="m 439.10886,612.63488 c -2e-5,-1.74057 -0.55844,-3.22523 -1.67525,-4.45398 -1.11685,-1.22873 -2.48974,-1.8431 -4.11868,-1.84312 -1.62896,2e-5 -3.00185,0.61439 -4.11868,1.84312 -1.11684,1.22875 -1.67526,2.71327 -1.67525,4.45355 -1e-5,1.74031 0.55841,3.22014 1.67525,4.4395 1.11683,1.21938 2.48972,1.82906 4.11868,1.82906 1.62894,0 3.00183,-0.60968 4.11868,-1.82906 1.11681,-1.21936 1.67523,-2.69905 1.67525,-4.43907 z m 1.47926,7.17563 c -1.97294,1.92634 -4.40202,2.88951 -7.28725,2.88951 -2.88526,0 -5.31448,-0.96331 -7.28768,-2.88994 -1.97321,-1.92662 -2.95981,-4.32318 -2.95981,-7.18969 0,-2.86648 0.9866,-5.26304 2.95981,-7.18968 1.9732,-1.92661 4.40242,-2.88992 7.28768,-2.88994 2.88523,2e-5 5.31446,0.96333 7.28768,2.88994 1.97318,1.92664 2.95978,4.3232 2.95981,7.18968 -3e-5,2.86651 -0.98677,5.26322 -2.96024,7.19012 z"
         id="path3795"
         inkscape:connector-curvature="0" />
    </g>
  </g>
</svg>
