<?xml version="1.0" encoding="UTF-8" standalone="no"?>
<!-- Created with Inkscape (http://www.inkscape.org/) -->

<svg
   xmlns:dc="http://purl.org/dc/elements/1.1/"
   xmlns:cc="http://creativecommons.org/ns#"
   xmlns:rdf="http://www.w3.org/1999/02/22-rdf-syntax-ns#"
   xmlns:svg="http://www.w3.org/2000/svg"
   xmlns="http://www.w3.org/2000/svg"
   xmlns:sodipodi="http://sodipodi.sourceforge.net/DTD/sodipodi-0.dtd"
   xmlns:inkscape="http://www.inkscape.org/namespaces/inkscape"
   width="744.09448819"
   height="1052.3622047"
   id="svg3904"
   version="1.1"
   inkscape:version="0.48.4 r9939"
   sodipodi:docname="New document 25">
  <defs
     id="defs3906" />
  <sodipodi:namedview
     id="base"
     pagecolor="#ffffff"
     bordercolor="#666666"
     borderopacity="1.0"
     inkscape:pageopacity="0.0"
     inkscape:pageshadow="2"
     inkscape:zoom="0.35"
     inkscape:cx="375"
     inkscape:cy="520"
     inkscape:document-units="px"
     inkscape:current-layer="layer1"
     showgrid="false"
     inkscape:window-width="1920"
     inkscape:window-height="1151"
     inkscape:window-x="0"
     inkscape:window-y="25"
     inkscape:window-maximized="1" />
  <metadata
     id="metadata3909">
    <rdf:RDF>
      <cc:Work
         rdf:about="">
        <dc:format>image/svg+xml</dc:format>
        <dc:type
           rdf:resource="http://purl.org/dc/dcmitype/StillImage" />
        <dc:title></dc:title>
      </cc:Work>
    </rdf:RDF>
  </metadata>
  <g
     inkscape:label="Layer 1"
     inkscape:groupmode="layer"
     id="layer1">
    <path
       style="fill:#000000;fill-opacity:1;fill-rule:nonzero;stroke:none"
       d="m 102.90816,423.14378 84.571,99.22162 84.583,-99.22162 -36.68,0 -3.341,2.5354 -27.476,1e-4 0,1.6004 -34.172,0 0,-1.6005 -25.938,0 -3.521,-2.5354 z"
       id="path3854"
       inkscape:connector-curvature="0"
       sodipodi:nodetypes="cccccccccccc"
       inkscape:export-filename="/home/wm/git-repositories/padrinorb-website/img/logo-navigation.png"
       inkscape:export-xdpi="47.617783"
       inkscape:export-ydpi="47.617783" />
    <path
       sodipodi:type="star"
       style="fill:#dfdfdf;fill-opacity:1;fill-rule:nonzero;stroke:none"
       id="path3858"
       sodipodi:sides="3"
       sodipodi:cx="15934.768"
       sodipodi:cy="-364.0466"
       sodipodi:r1="175.66318"
       sodipodi:r2="87.831589"
       sodipodi:arg1="0.52359878"
       sodipodi:arg2="1.5707963"
       inkscape:flatsided="true"
       inkscape:rounded="0"
       inkscape:randomized="0"
       d="m 16086.896,-276.21501 -304.257,0 152.129,-263.49477 z"
       inkscape:transform-center-y="11.800305"
       transform="matrix(-0.38941341,0,0,-0.26870218,6392.6972,354.72158)"
       inkscape:transform-center-x="0.00050321141"
       inkscape:export-filename="/home/wm/git-repositories/padrinorb-website/img/logo-navigation.png"
       inkscape:export-xdpi="47.617783"
       inkscape:export-ydpi="47.617783" />
    <path
       style="fill:#000000;fill-opacity:1;fill-rule:nonzero;stroke:none"
       d="m 127.76516,410.93038 0,15.7421 0,15.7299 36.419,-7.8709 23.3,-5.0308 23.3,5.0308 36.418,7.8709 0,-15.7299 0,-15.7421 -36.418,7.871 -23.3,5.0307 -23.3,-5.0307 -36.419,-7.871 z"
       id="path3862"
       inkscape:connector-curvature="0"
       inkscape:export-filename="/home/wm/git-repositories/padrinorb-website/img/logo-navigation.png"
       inkscape:export-xdpi="47.617783"
       inkscape:export-ydpi="47.617783" />
    <path
       sodipodi:nodetypes="cccc"
       inkscape:connector-curvature="0"
       id="path3866"
       d="m 187.56116,499.7427 -38.208,-45.49542 38.107,-24.5782 z"
       inkscape:transform-center-y="7.2976838"
       style="opacity:0.71365638;fill:#ffffff;fill-opacity:1;fill-rule:nonzero;stroke:none"
       inkscape:export-filename="/home/wm/git-repositories/padrinorb-website/img/logo-navigation.png"
       inkscape:export-xdpi="47.617783"
       inkscape:export-ydpi="47.617783"
       inkscape:transform-center-x="2.9109873e-05" />
    <path
       sodipodi:nodetypes="ccccccccc"
       inkscape:connector-curvature="0"
       id="path3868"
       d="m 187.51816,429.47848 -23.3,5.0308 -26.649,5.7166 1.793,2.1424 c 17.197,-4.3836 48.156,-12.0714 48.156,-12.0714 l 46.907,13.6126 2.872,-3.6303 -26.491,-5.7699 z"
       style="opacity:0.33000004;fill:#000000;fill-opacity:1;fill-rule:nonzero;stroke:none"
       inkscape:export-filename="/home/wm/git-repositories/padrinorb-website/img/logo-navigation.png"
       inkscape:export-xdpi="47.617783"
       inkscape:export-ydpi="47.617783" />
    <path
       inkscape:connector-curvature="0"
       id="path3872"
       d="m 215.57716,454.95048 8.173,24.985 21.301,-24.985 -29.474,0 z"
       style="fill:#ff0000;fill-opacity:1;fill-rule:nonzero;stroke:none"
       inkscape:export-filename="/home/wm/git-repositories/padrinorb-website/img/logo-navigation.png"
       inkscape:export-xdpi="47.617783"
       inkscape:export-ydpi="47.617783" />
    <path
       style="opacity:0.4857143;fill:#000000;fill-opacity:0.39613528;stroke:none"
       d="m 215.57716,454.71648 13.927,18.426 -5.76,6.8089 z"
       id="path3874"
       inkscape:connector-curvature="0"
       sodipodi:nodetypes="cccc"
       inkscape:export-xdpi="47.617783"
       inkscape:export-ydpi="47.617783"
       inkscape:export-filename="/home/wm/git-repositories/padrinorb-website/img/logo-navigation.png" />
    <path
       d="m 266.61308,495.19988 c 0,-0.69047 0.39284,-1.14499 1.18139,-1.35927 0.78832,-0.21207 1.78203,-0.41124 2.9766,-0.5995 1.19468,-0.18606 2.50178,-0.46551 3.91502,-0.83986 1.41105,-0.37252 2.71619,-1.0648 3.91064,-2.07789 2.77354,-2.34397 4.16242,-6.2617 4.16242,-11.75062 0,-3.51512 -1.2122,-6.20761 -3.6324,-8.07126 -2.42008,-1.86351 -5.90018,-2.7986 -10.43801,-2.7986 -4.5421,0 -8.793,0.93509 -12.76092,2.7986 -1.46633,0.69267 -2.78667,1.33116 -3.95487,1.9199 -1.16807,0.58649 -2.2436,0.8787 -3.22183,0.8787 -0.97816,0 -1.46611,-0.29408 -1.46611,-0.8787 0,-0.90692 0.89647,-2.39816 2.69182,-4.47609 1.793,-1.91986 4.63265,-3.70334 8.5213,-5.35702 3.88638,-1.6514 7.97361,-2.47818 12.27071,-2.47818 8.0995,-0.0517 14.40385,1.81159 18.91958,5.595 3.91079,3.30297 5.86941,7.58205 5.86941,12.82863 0,5.25095 -1.92782,9.93903 -5.78772,14.06887 -3.86428,4.12972 -8.68689,6.1924 -14.47445,6.1924 -5.78988,0 -8.68258,-1.19691 -8.68258,-3.59511 z m -5.54691,21.50158 c 0,3.14488 -3.12678,4.71626 -9.37588,4.71626 -1.35803,0 -2.16179,-0.67747 -2.40684,-2.03667 -0.24486,-1.35934 -0.3669,-3.26399 -0.3669,-5.71631 0,-5.16866 1.05997,-11.56243 3.17756,-19.18344 3.53754,-12.57531 7.3113,-19.98207 11.33451,-22.22011 0.54296,-0.32082 1.14394,-0.48057 1.79308,-0.48057 0.65588,0 0.97824,1.03672 0.97824,3.11677 0,2.07785 -0.1078,3.91553 -0.32148,5.51494 -0.43535,3.19904 -1.21223,7.32873 -2.32518,12.38925 -1.11729,5.06478 -1.67381,8.04959 -1.67381,8.9543 l -0.81261,14.94551 z"
       id="path109-1"
       inkscape:connector-curvature="0"
       style="fill:#231f20"
       inkscape:export-filename="/home/wm/git-repositories/padrinorb-website/img/logo-navigation.png"
       inkscape:export-xdpi="47.617783"
       inkscape:export-ydpi="47.617783" />
    <path
       d="m 344.81309,501.35338 c 0.97819,0 1.47064,1.22726 1.47064,3.6774 0,1.33117 -0.57434,2.94575 -1.71131,4.83538 -1.14382,1.89169 -2.62559,3.62325 -4.44731,5.19463 -1.82165,1.57138 -3.84654,2.86569 -6.07247,3.87647 -2.23459,1.01295 -4.40739,1.51733 -6.52502,1.51733 -2.88173,0 -4.81387,-2.47829 -5.79215,-7.43267 -1.41093,2.29212 -3.26145,4.16867 -5.5424,5.63618 -2.28549,1.46737 -5.34374,2.19902 -9.17276,2.19902 -3.83332,0 -6.92261,-1.17093 -9.25437,-3.51721 -2.34301,-2.34621 -3.48009,-5.19459 -3.42935,-8.55166 0,-9.0604 3.07157,-16.19867 9.21695,-21.42144 2.61004,-2.18399 5.04125,-3.62545 7.29798,-4.31593 2.25673,-0.6904 4.63705,-1.03892 7.13675,-1.03892 2.49747,0 4.53787,0.42876 6.11666,1.27921 0.7596,-1.54324 1.62969,-2.3159 2.61,-2.3159 1.9013,0 3.70971,0.81154 5.42101,2.43711 1.71146,1.62546 2.57039,3.15568 2.57039,4.59725 -0.76399,1.75751 -1.87697,3.86354 -3.34319,6.31369 -0.43531,2.45011 -0.65588,5.88723 -0.65588,10.31136 0,4.4242 0.57438,6.634 1.71138,6.634 1.41552,0 4.83809,-2.77043 10.27685,-8.31369 0.97824,-1.06703 1.68259,-1.60161 2.1176,-1.60161 z m -38.48839,4.79856 c 0,4.10382 1.548,6.1557 4.64829,6.1557 3.31223,-0.0538 6.05914,-1.78566 8.23429,-5.19463 0.76395,-1.17314 1.38887,-2.61251 1.87686,-4.31814 0,-5.96736 0.54296,-11.08186 1.62961,-15.34796 -4.40305,0.85481 -8.23422,2.93281 -11.4979,6.23568 -3.2615,3.30511 -4.89115,7.45872 -4.89115,12.46935 z"
       id="path111-0"
       inkscape:connector-curvature="0"
       style="fill:#231f20"
       inkscape:export-filename="/home/wm/git-repositories/padrinorb-website/img/logo-navigation.png"
       inkscape:export-xdpi="47.617783"
       inkscape:export-ydpi="47.617783" />
    <path
       d="m 392.2754,501.35338 c 0.9782,0 1.4661,1.22726 1.4661,3.6774 0,1.33117 -0.5696,2.94575 -1.7112,4.83538 -1.1438,1.89169 -2.6233,3.62325 -4.4428,5.19463 -1.8239,1.57354 -3.8466,2.86569 -6.0768,3.87647 -2.2303,1.01295 -4.4032,1.51733 -6.5251,1.51733 -2.9899,0 -4.9464,-2.39614 -5.8695,-7.19249 -3.2614,5.06265 -8.0995,7.59502 -14.51638,7.59502 -3.91064,0 -7.03969,-1.17093 -9.37588,-3.51721 -2.33623,-2.34621 -3.48006,-5.19459 -3.42489,-8.55166 0,-9.0604 3.07154,-16.19867 9.21677,-21.42144 4.2398,-3.56924 8.64284,-5.35695 13.20938,-5.35695 2.0624,0 3.6964,0.16041 4.891,0.48057 l 1.8771,0.48057 c 2.2302,-10.28325 4.8093,-17.15742 7.7462,-20.6228 0.9781,-1.17093 1.9586,-1.75747 2.9368,-1.75747 1.5745,0 3.0451,1.0692 4.4032,3.20121 1.1945,1.75758 1.793,3.27697 1.793,4.55401 0,1.27697 -0.1937,2.53024 -0.5743,3.75526 -0.3792,1.22509 -0.8545,2.35922 -1.4242,3.39818 -0.5744,1.03676 -1.2123,2.04974 -1.9189,3.03455 -0.7067,0.98701 -1.4155,1.98699 -2.1176,2.9977 -1.579,5.75529 -2.747,12.20532 -3.5067,19.34583 -0.2214,2.0259 -0.3269,3.65139 -0.3269,4.87424 0,3.67741 0.625,5.51715 1.877,5.51715 1.411,0 4.838,-2.77043 10.2724,-8.31351 0.9782,-1.06707 1.687,-1.60176 2.122,-1.60176 z m -38.49276,4.79856 c 0,4.10382 1.55238,6.1557 4.64821,6.1557 1.84595,0 3.70975,-0.69261 5.58445,-2.07999 1.877,-1.38528 3.3299,-3.70338 4.3656,-6.95448 0.109,-4.79628 0.6779,-10.06884 1.7113,-15.82626 -4.3522,0.85481 -8.1548,2.93281 -11.41622,6.23568 -3.25703,3.30511 -4.89334,7.45872 -4.89334,12.46935 z"
       id="path113-4"
       inkscape:connector-curvature="0"
       style="fill:#231f20"
       inkscape:export-filename="/home/wm/git-repositories/padrinorb-website/img/logo-navigation.png"
       inkscape:export-xdpi="47.617783"
       inkscape:export-ydpi="47.617783" />
    <path
       d="m 401.5696,506.79046 0.488,9.7529 c 0,1.27708 -0.678,2.42421 -2.036,3.43716 -1.358,1.01085 -3.2085,1.51726 -5.5469,1.51726 -1.358,0 -2.2987,-0.69261 -2.811,-2.07789 -0.517,-1.38521 -0.7773,-3.40898 -0.7773,-6.07546 0,-5.59511 0.2849,-9.97812 0.859,-13.14898 0.5697,-3.17094 1.6959,-6.37865 3.3806,-9.62964 -2.5019,-2.34613 -3.7472,-4.37207 -3.7472,-6.07549 0,-3.56924 1.9542,-5.35706 5.8693,-5.35706 2.0095,0 3.7783,1.03893 5.2997,3.11465 1.0863,1.44149 1.8769,3.11901 2.3627,5.03664 0.764,0.26879 1.7112,0.40069 2.8551,0.40069 1.5744,0 3.3984,-0.50434 5.4653,-1.51729 l 2.1175,-1.03893 c 0.6559,-0.3172 1.2255,-0.48057 1.7114,-0.48057 1.5789,0 3.1532,2.26619 4.7321,6.79632 -0.488,2.07575 -1.0181,4.07564 -1.5921,5.9955 -0.5697,1.91766 -1.2344,4.2358 -1.9962,6.9543 -0.7596,2.71862 -1.1549,4.54321 -1.1814,5.47394 -0.023,0.93498 0.2584,1.39822 0.859,1.39822 0.8149,0 1.8195,-0.50638 3.0141,-1.51943 1.1947,-1.01295 2.3937,-2.11897 3.5884,-3.31599 1.1945,-1.20125 2.2942,-2.30292 3.3033,-3.31808 1.0049,-1.01071 1.7003,-1.51722 2.0779,-1.51722 0.7597,0 1.1439,0.90688 1.1439,2.71854 0,3.67517 -1.6472,7.30066 -4.933,10.86759 -3.2902,3.57137 -7.0552,5.33105 -11.2948,5.277 -2.5019,0 -4.3766,-0.98488 -5.6286,-2.95453 -1.2499,-1.97178 -1.9013,-4.3721 -1.9542,-7.19462 0,-5.59507 1.2763,-10.8979 3.8288,-15.90857 -1.1945,0.4826 -2.5393,0.72075 -4.0364,0.72075 -1.4927,0 -2.5659,-0.0517 -3.2173,-0.15788 -0.4926,2.02598 -0.9783,4.06264 -1.4707,6.11238 -0.4879,2.04968 -0.733,3.95444 -0.733,5.71404 z"
       id="path115-6"
       inkscape:connector-curvature="0"
       style="fill:#231f20"
       inkscape:export-filename="/home/wm/git-repositories/padrinorb-website/img/logo-navigation.png"
       inkscape:export-xdpi="47.617783"
       inkscape:export-ydpi="47.617783" />
    <path
       d="m 436.7148,520.45668 c -5.4388,0 -8.1548,-4.98035 -8.1548,-14.9454 0,-5.43491 0.6824,-10.36335 2.0403,-14.78748 2.1177,-6.82009 4.5114,-10.23344 7.1765,-10.23344 1.5745,0 2.8244,1.03889 3.7474,3.11902 0.764,1.59728 1.1173,3.17086 1.0599,4.71406 0,2.13204 -0.6514,5.88951 -1.9587,11.27026 -1.2497,4.69253 -1.8725,7.59503 -1.8725,8.71192 0,1.12115 0.2849,1.89382 0.8546,2.31803 0.5696,0.42645 1.2498,0.64062 2.0404,0.64062 0.7838,0 1.7819,-0.5063 2.9765,-1.51936 1.1946,-1.01306 2.3893,-2.11896 3.5883,-3.31584 1.1947,-1.20128 2.2943,-2.30303 3.3035,-3.31815 1.0046,-1.01078 1.6959,-1.51726 2.0778,-1.51726 0.7596,0 1.1439,0.90685 1.1439,2.71854 0,3.72936 -1.919,7.36559 -5.7502,10.91091 -3.8333,3.54319 -7.925,5.28986 -12.2729,5.23357 z m 3.3431,-46.43795 c -1.4661,-2.12988 -2.1993,-4.42196 -2.1993,-6.87424 0,-2.45235 0.3929,-4.48909 1.1814,-6.11676 0.7838,-1.62329 1.5346,-2.82457 2.2435,-3.59507 0.7021,-0.77057 1.5192,-1.16009 2.4444,-1.16009 1.5215,0 2.906,1.10811 4.158,3.318 1.252,2.20994 1.8769,4.0626 1.8769,5.55392 0,2.77266 -0.9915,4.94361 -2.9766,6.51503 -1.9852,1.5735 -4.2264,2.35921 -6.7283,2.35921 z"
       id="path117-5"
       inkscape:connector-curvature="0"
       style="fill:#231f20"
       inkscape:export-filename="/home/wm/git-repositories/padrinorb-website/img/logo-navigation.png"
       inkscape:export-xdpi="47.617783"
       inkscape:export-ydpi="47.617783" />
    <path
       d="m 461.5014,480.33238 c 1.9587,0 3.8048,1.83977 5.5469,5.51501 2.5527,-2.60817 5.7192,-3.91546 9.5018,-3.91546 3.7782,0 6.6156,0.81158 8.5213,2.43714 1.9013,1.62546 2.8508,3.91762 2.8508,6.87417 0,2.9567 -0.3929,5.95447 -1.1814,8.99108 -0.7883,3.03679 -1.358,5.20984 -1.7114,6.51506 -0.3538,1.30725 -0.5302,2.38736 -0.5302,3.23578 0,0.85504 0.2984,1.28139 0.8965,1.28139 0.8147,0 1.8195,-0.50645 3.0185,-1.51951 1.1945,-1.01287 2.3892,-2.11889 3.5883,-3.31591 1.1946,-1.20125 2.2942,-2.30293 3.299,-3.31808 1.0092,-1.01074 1.7003,-1.51729 2.0823,-1.51729 0.7596,0 1.1395,0.90699 1.1395,2.71854 0,3.72936 -1.877,7.32667 -5.6243,10.78973 -6.3087,3.62542 -10.3297,5.43495 -12.0721,5.43495 -0.1594,0 -0.2718,-0.0217 -0.3222,-0.0798 -4.3524,0 -6.5252,-3.40685 -6.5252,-10.23131 0,-2.93068 0.2849,-5.62325 0.859,-8.07343 0.5696,-2.44791 0.9869,-4.23576 1.2631,-5.35485 0.2718,-1.11895 0.4061,-2.26398 0.4061,-3.43709 0,-1.91762 -1.1306,-2.87645 -3.3808,-2.87645 -2.2589,0 -4.4031,1.63835 -6.4434,4.91543 -2.0403,3.27693 -3.4115,6.67294 -4.1182,10.19012 v 0.56056 c 0,1.81169 0.2845,3.6752 0.8589,5.59301 0.5697,1.91983 0.8546,3.25095 0.8546,3.99981 0,1.80949 -2.3119,3.59514 -6.9314,5.35482 -0.7066,0.26554 -1.3337,0.40069 -1.8769,0.40069 -1.3581,0 -2.2988,-0.69264 -2.811,-2.07785 -0.5169,-1.38525 -0.7774,-3.54536 -0.7774,-6.47387 0,-7.56686 0.2988,-13.02984 0.8966,-16.38477 0.8148,-5.00854 2.6652,-9.67288 5.5469,-13.98877 0.976,-1.49558 2.036,-2.24231 3.1753,-2.24231 z"
       id="path119-0"
       inkscape:connector-curvature="0"
       style="fill:#231f20"
       inkscape:export-filename="/home/wm/git-repositories/padrinorb-website/img/logo-navigation.png"
       inkscape:export-xdpi="47.617783"
       inkscape:export-ydpi="47.617783" />
    <path
       d="m 527.3932,513.42229 c -4.295,4.95654 -9.4488,7.437 -15.4528,7.437 -6.0084,0 -10.5065,-1.50429 -13.4985,-4.51716 -2.9899,-3.01078 -4.4561,-6.75307 -4.4032,-11.22908 -0.052,-6.3419 1.983,-11.80265 6.1189,-16.3848 4.1271,-4.58208 9.5392,-6.87428 16.2256,-6.87428 3.045,0 5.4895,0.37251 7.34,1.11898 3.204,1.27918 4.8094,2.48043 4.8094,3.59511 0,0.85497 -2.2436,1.29435 -6.724,1.31816 -4.4848,0.0325 -8.2363,1.54764 -11.2572,4.55614 -3.0141,3.01081 -4.5245,6.80939 -4.5245,11.39144 0,2.39827 0.7199,4.40896 2.1618,6.03456 1.442,1.62543 3.4757,2.43928 6.1166,2.43928 2.6344,0 4.827,-0.53249 6.5649,-1.59953 -3.8598,-2.55835 -5.7876,-6.26173 -5.7876,-11.11228 -0.058,-2.55831 0.8789,-4.88725 2.811,-6.99111 1.9277,-2.10596 4.403,-3.17086 7.4217,-3.199 3.014,-0.0217 5.1759,0.78791 6.4831,2.43717 1.3028,1.65361 1.9586,3.7704 1.9586,6.35693 0,2.58646 -0.6293,5.31577 -1.8769,8.19229 h 0.488 c 2.3937,-0.0517 4.4561,-0.87866 6.1984,-2.48038 0.6513,-0.63856 1.2078,-1.19699 1.6738,-1.67741 0.4613,-0.47805 0.9362,-0.71855 1.4264,-0.71855 0.7596,0 1.1394,0.87874 1.1394,2.63834 0,3.25103 -0.9782,5.69048 -2.9324,7.3137 -1.9587,1.62767 -4.1183,2.43935 -6.4876,2.43935 -2.3671,-0.002 -4.3634,-0.16294 -5.9929,-0.48462 z m -0.7353,-9.27031 c 0.923,-1.91983 1.3844,-3.78341 1.3844,-5.59507 0,-1.81159 -0.5985,-2.7163 -1.793,-2.7163 -0.488,0 -0.8965,0.3461 -1.2255,1.03672 -0.3226,0.69264 -0.488,1.35927 -0.488,1.99779 0,2.13414 0.7088,3.89161 2.1221,5.27686 z"
       id="path121-1"
       inkscape:connector-curvature="0"
       style="fill:#231f20"
       inkscape:export-filename="/home/wm/git-repositories/padrinorb-website/img/logo-navigation.png"
       inkscape:export-xdpi="47.617783"
       inkscape:export-ydpi="47.617783" />
  </g>
</svg>
