<?xml version="1.0" encoding="UTF-8" standalone="no"?>
<!-- Created with Inkscape (http://www.inkscape.org/) -->

<svg
   xmlns:dc="http://purl.org/dc/elements/1.1/"
   xmlns:cc="http://creativecommons.org/ns#"
   xmlns:rdf="http://www.w3.org/1999/02/22-rdf-syntax-ns#"
   xmlns:svg="http://www.w3.org/2000/svg"
   xmlns="http://www.w3.org/2000/svg"
   xmlns:sodipodi="http://sodipodi.sourceforge.net/DTD/sodipodi-0.dtd"
   xmlns:inkscape="http://www.inkscape.org/namespaces/inkscape"
   width="744.09448819"
   height="1052.3622047"
   id="svg3781"
   version="1.1"
   inkscape:version="0.48.4 r9939"
   sodipodi:docname="New document 22">
  <defs
     id="defs3783" />
  <sodipodi:namedview
     id="base"
     pagecolor="#ffffff"
     bordercolor="#666666"
     borderopacity="1.0"
     inkscape:pageopacity="0.0"
     inkscape:pageshadow="2"
     inkscape:zoom="0.35"
     inkscape:cx="375"
     inkscape:cy="520"
     inkscape:document-units="px"
     inkscape:current-layer="layer1"
     showgrid="false"
     inkscape:window-width="1920"
     inkscape:window-height="1151"
     inkscape:window-x="0"
     inkscape:window-y="25"
     inkscape:window-maximized="1" />
  <metadata
     id="metadata3786">
    <rdf:RDF>
      <cc:Work
         rdf:about="">
        <dc:format>image/svg+xml</dc:format>
        <dc:type
           rdf:resource="http://purl.org/dc/dcmitype/StillImage" />
        <dc:title></dc:title>
      </cc:Work>
    </rdf:RDF>
  </metadata>
  <g
     inkscape:label="Layer 1"
     inkscape:groupmode="layer"
     id="layer1">
    <path
       style="fill:#000000;fill-opacity:1;fill-rule:nonzero;stroke:none"
       d="m 213.91443,431.47801 74.652,88.6226 74.662,-88.6226 -32.377,0 -2.95,2.2645 -24.253,1e-4 0,1.4294 -30.164,0 0,-1.4295 -22.896,0 -3.108,-2.2645 z"
       id="path3854"
       inkscape:connector-curvature="0"
       sodipodi:nodetypes="cccccccccccc"
       inkscape:export-filename="/home/wm/git-repositories/padrinorb-website/img/logo-navigation.png"
       inkscape:export-xdpi="47.617783"
       inkscape:export-ydpi="47.617783" />
    <path
       sodipodi:type="star"
       style="fill:#dfdfdf;fill-opacity:1;fill-rule:nonzero;stroke:none"
       id="path3858"
       sodipodi:sides="3"
       sodipodi:cx="15934.768"
       sodipodi:cy="-364.0466"
       sodipodi:r1="175.66318"
       sodipodi:r2="87.831589"
       sodipodi:arg1="0.52359878"
       sodipodi:arg2="1.5707963"
       inkscape:flatsided="true"
       inkscape:rounded="0"
       inkscape:randomized="0"
       d="m 16086.896,-276.21501 -304.257,0 152.129,-263.49477 z"
       inkscape:transform-center-y="10.539732"
       transform="matrix(-0.34374039,0,0,-0.2399989,5765.9945,370.36471)"
       inkscape:transform-center-x="0.00074845849"
       inkscape:export-filename="/home/wm/git-repositories/padrinorb-website/img/logo-navigation.png"
       inkscape:export-xdpi="47.617783"
       inkscape:export-ydpi="47.617783" />
    <path
       style="fill:#000000;fill-opacity:1;fill-rule:nonzero;stroke:none"
       d="m 235.85643,420.56921 0,14.0605 0,14.0496 32.147,-7.0301 20.567,-4.4934 20.568,4.4934 32.146,7.0301 0,-14.0496 0,-14.0605 -32.146,7.0302 -20.568,4.4933 -20.567,-4.4933 -32.147,-7.0302 z"
       id="path3862"
       inkscape:connector-curvature="0"
       inkscape:export-filename="/home/wm/git-repositories/padrinorb-website/img/logo-navigation.png"
       inkscape:export-xdpi="47.617783"
       inkscape:export-ydpi="47.617783" />
    <path
       sodipodi:nodetypes="cccc"
       inkscape:connector-curvature="0"
       id="path3866"
       d="m 288.63843,499.89451 -33.726,-40.6356 33.637,-21.9527 z"
       inkscape:transform-center-y="6.518128"
       style="opacity:0.71365638;fill:#ffffff;fill-opacity:1;fill-rule:nonzero;stroke:none"
       inkscape:export-filename="/home/wm/git-repositories/padrinorb-website/img/logo-navigation.png"
       inkscape:export-xdpi="47.617783"
       inkscape:export-ydpi="47.617783" />
    <path
       sodipodi:nodetypes="ccccccccc"
       inkscape:connector-curvature="0"
       id="path3868"
       d="m 288.60043,437.13601 -20.567,4.4934 -23.523,5.1059 1.582,1.9136 c 15.18,-3.9154 42.508,-10.782 42.508,-10.782 l 41.406,12.1585 2.535,-3.2425 -23.384,-5.1535 z"
       style="opacity:0.33000004;fill:#000000;fill-opacity:1;fill-rule:nonzero;stroke:none"
       inkscape:export-filename="/home/wm/git-repositories/padrinorb-website/img/logo-navigation.png"
       inkscape:export-xdpi="47.617783"
       inkscape:export-ydpi="47.617783" />
    <path
       inkscape:connector-curvature="0"
       id="path3872"
       d="m 313.36843,459.88701 7.215,22.3161 18.803,-22.3161 -26.018,0 z"
       style="fill:#ff0000;fill-opacity:1;fill-rule:nonzero;stroke:none"
       inkscape:export-filename="/home/wm/git-repositories/padrinorb-website/img/logo-navigation.png"
       inkscape:export-xdpi="47.617783"
       inkscape:export-ydpi="47.617783" />
    <path
       style="opacity:0.4857143;fill:#000000;fill-opacity:0.39613528;stroke:none"
       d="m 313.36843,459.67801 12.294,16.4577 -5.084,6.0816 z"
       id="path3874"
       inkscape:connector-curvature="0"
       sodipodi:nodetypes="cccc"
       inkscape:export-xdpi="47.617783"
       inkscape:export-ydpi="47.617783"
       inkscape:export-filename="/home/wm/git-repositories/padrinorb-website/img/logo-navigation.png" />
    <path
       d="m 241.6847,535.90954 c 0,-0.29155 0.15015,-0.48328 0.45176,-0.57375 0.30145,-0.0896 0.68136,-0.17377 1.13812,-0.25289 0.4568,-0.0788 0.9566,-0.19653 1.49698,-0.35441 0.53953,-0.15716 1.03857,-0.44947 1.49533,-0.87708 1.06047,-0.98939 1.59157,-2.6431 1.59157,-4.95997 0,-1.48377 -0.46354,-2.62028 -1.38895,-3.40692 -0.92534,-0.78658 -2.25604,-1.18131 -3.99114,-1.18131 -1.73675,0 -3.36217,0.39473 -4.87936,1.18131 -0.56067,0.29227 -1.06551,0.56186 -1.51222,0.81038 -0.44664,0.24747 -0.85785,0.37092 -1.23191,0.37092 -0.37383,0 -0.5606,-0.12428 -0.5606,-0.37092 0,-0.38281 0.34265,-1.01226 1.02925,-1.88937 0.6856,-0.81035 1.77141,-1.56318 3.2583,-2.2612 1.48601,-0.69709 3.04882,-1.04605 4.69191,-1.04605 3.09698,-0.0217 5.50755,0.76465 7.23422,2.36168 1.49533,1.39417 2.24426,3.20037 2.24426,5.415 0,2.21648 -0.73712,4.1953 -2.21304,5.93854 -1.47757,1.74316 -3.32155,2.61384 -5.53454,2.61384 -2.21384,0 -3.31994,-0.50521 -3.31994,-1.51755 z m -2.12094,9.0759 c 0,1.32748 -1.1956,1.99075 -3.58504,1.99075 -0.51925,0 -0.82659,-0.28577 -0.9203,-0.85966 -0.0936,-0.57378 -0.14052,-1.37777 -0.14052,-2.41286 0,-2.18172 0.40529,-4.88057 1.21501,-8.09742 1.35264,-5.30807 2.79557,-8.43453 4.33394,-9.3792 0.20751,-0.13548 0.43739,-0.20304 0.6856,-0.20304 0.25063,0 0.37421,0.43762 0.37421,1.3156 0,0.87707 -0.0412,1.65277 -0.12281,2.32789 -0.1667,1.35031 -0.4635,3.09347 -0.88907,5.22956 -0.42719,2.13786 -0.64002,3.39778 -0.64002,3.77965 l -0.31069,6.30855 z"
       id="path109-1"
       inkscape:connector-curvature="0"
       style="fill:#231f20"
       inkscape:export-filename="/home/wm/git-repositories/padrinorb-website/img/logo-navigation.png"
       inkscape:export-xdpi="47.617783"
       inkscape:export-ydpi="47.617783" />
    <path
       d="m 271.58583,538.50694 c 0.37383,0 0.56232,0.51808 0.56232,1.5523 0,0.56186 -0.21983,1.24341 -0.65433,2.04101 -0.43736,0.79849 -1.00396,1.52939 -1.70053,2.19266 -0.69654,0.66331 -1.47076,1.20963 -2.32187,1.6363 -0.85446,0.42753 -1.68528,0.64047 -2.49501,0.64047 -1.10189,0 -1.84062,-1.04611 -2.21469,-3.13737 -0.53953,0.9675 -1.24707,1.7596 -2.11924,2.37905 -0.87391,0.61941 -2.04329,0.92823 -3.50735,0.92823 -1.46576,0 -2.647,-0.49426 -3.53858,-1.48463 -0.89588,-0.99034 -1.3307,-2.19267 -1.31126,-3.60971 0,-3.82444 1.17447,-6.8375 3.52422,-9.04205 0.99802,-0.92187 1.92763,-1.53033 2.79053,-1.82178 0.86289,-0.29155 1.77305,-0.43855 2.72885,-0.43855 0.95498,0 1.73517,0.181 2.33881,0.53996 0.29028,-0.65138 0.62315,-0.97754 0.99798,-0.97754 0.72699,0 1.41848,0.34249 2.07282,1.0287 0.65442,0.6861 0.98282,1.33203 0.98282,1.94053 -0.29221,0.74185 -0.71767,1.63084 -1.2783,2.66504 -0.16671,1.03419 -0.25064,2.48501 -0.25064,4.35245 0,1.86751 0.21984,2.80026 0.65438,2.80026 0.54127,0 1.84995,-1.16942 3.92954,-3.50927 0.37383,-0.45037 0.64337,-0.67606 0.80968,-0.67606 z m -14.7167,2.02551 c 0,1.73225 0.59189,2.59838 1.77734,2.59838 1.26652,-0.0217 2.31682,-0.75377 3.14857,-2.19271 0.29221,-0.49516 0.53102,-1.10272 0.71763,-1.82268 0,-2.51882 0.20751,-4.67771 0.62312,-6.47846 -1.68359,0.36092 -3.14854,1.23795 -4.39646,2.63212 -1.24708,1.39511 -1.8702,3.14836 -1.8702,5.26335 z"
       id="path111-0"
       inkscape:connector-curvature="0"
       style="fill:#231f20"
       inkscape:export-filename="/home/wm/git-repositories/padrinorb-website/img/logo-navigation.png"
       inkscape:export-xdpi="47.617783"
       inkscape:export-ydpi="47.617783" />
    <path
       d="m 289.73384,538.50694 c 0.37422,0 0.56063,0.51808 0.56063,1.5523 0,0.56186 -0.21791,1.24341 -0.65434,2.04101 -0.43735,0.79849 -1.00303,1.52939 -1.69879,2.19266 -0.69738,0.66421 -1.47076,1.20963 -2.32357,1.6363 -0.8528,0.42753 -1.68362,0.64047 -2.49496,0.64047 -1.14325,0 -1.89133,-1.01143 -2.24426,-3.03596 -1.24708,2.13696 -3.09706,3.20587 -5.55064,3.20587 -1.49528,0 -2.69173,-0.49426 -3.58504,-1.48463 -0.89327,-0.99034 -1.33062,-2.19267 -1.30953,-3.60971 0,-3.82444 1.17443,-6.8375 3.52414,-9.04205 1.62118,-1.5066 3.30477,-2.2612 5.05088,-2.2612 0.78858,0 1.41339,0.0679 1.87019,0.20304 l 0.71767,0.20268 c 0.85281,-4.34057 1.83893,-7.24221 2.96193,-8.70495 0.37383,-0.49426 0.74889,-0.74184 1.12296,-0.74184 0.60201,0 1.1643,0.4513 1.68358,1.35125 0.45676,0.74188 0.6856,1.38322 0.6856,1.92228 0,0.53899 -0.0743,1.06801 -0.21983,1.58511 -0.14514,0.51709 -0.32686,0.99582 -0.54458,1.43437 -0.21983,0.43762 -0.46349,0.86523 -0.73368,1.28091 -0.27027,0.41659 -0.54127,0.83867 -0.80973,1.26531 -0.60375,2.42933 -1.05034,5.15192 -1.34086,8.16599 -0.0847,0.8551 -0.12474,1.54124 -0.12474,2.0574 0,1.55226 0.23908,2.32879 0.71767,2.32879 0.53954,0 1.84991,-1.16938 3.92785,-3.50912 0.37383,-0.45041 0.64506,-0.67613 0.81137,-0.67613 z m -14.71831,2.02551 c 0,1.73225 0.59354,2.59838 1.77729,2.59838 0.70585,0 1.41848,-0.29228 2.1353,-0.87798 0.71771,-0.58473 1.27326,-1.56321 1.66927,-2.93552 0.0416,-2.02453 0.2591,-4.25011 0.65438,-6.68035 -1.66419,0.36092 -3.11812,1.23795 -4.36524,2.63212 -1.24535,1.39511 -1.871,3.14836 -1.871,5.26335 z"
       id="path113-4"
       inkscape:connector-curvature="0"
       style="fill:#231f20"
       inkscape:export-filename="/home/wm/git-repositories/padrinorb-website/img/logo-navigation.png"
       inkscape:export-xdpi="47.617783"
       inkscape:export-ydpi="47.617783" />
    <path
       d="m 293.28766,540.80199 0.18672,4.11672 c 0,0.53907 -0.2591,1.02329 -0.7785,1.45086 -0.51928,0.42667 -1.22682,0.64044 -2.12094,0.64044 -0.51924,0 -0.87894,-0.29228 -1.07483,-0.87708 -0.1975,-0.58469 -0.29722,-1.43893 -0.29722,-2.56449 0,-2.36171 0.10896,-4.21177 0.3284,-5.55023 0.21791,-1.33846 0.64841,-2.69246 1.29263,-4.0647 -0.95664,-0.99033 -1.43284,-1.84548 -1.43284,-2.56449 0,-1.50664 0.74728,-2.26124 2.24426,-2.26124 0.76833,0 1.44469,0.43852 2.02642,1.31469 0.41537,0.60847 0.71767,1.31653 0.90339,2.12601 0.29222,0.11344 0.65434,0.16908 1.09174,0.16908 0.60198,0 1.2994,-0.21279 2.08975,-0.64044 l 0.80965,-0.43855 c 0.25063,-0.13367 0.46862,-0.20268 0.65438,-0.20268 0.60371,0 1.20569,0.95656 1.8094,2.86873 -0.18672,0.8762 -0.38931,1.72036 -0.60875,2.53074 -0.21791,0.80945 -0.47205,1.78793 -0.7633,2.93542 -0.29028,1.14756 -0.44155,1.9177 -0.45171,2.31059 -0.0115,0.39465 0.0989,0.59018 0.3284,0.59018 0.31146,0 0.69572,-0.21388 1.15252,-0.64134 0.4568,-0.42761 0.91525,-0.89442 1.37205,-1.39974 0.45676,-0.50701 0.87725,-0.97205 1.2631,-1.40056 0.38422,-0.42663 0.65014,-0.6404 0.79451,-0.6404 0.29029,0 0.43739,0.38277 0.43739,1.14749 0,1.55129 -0.62985,3.08166 -1.88624,4.58725 -1.25805,1.5075 -2.69763,2.25025 -4.31877,2.22745 -0.9566,0 -1.67346,-0.41572 -2.15217,-1.24713 -0.47789,-0.83227 -0.72698,-1.84547 -0.74724,-3.03686 0,-2.3617 0.48803,-4.60004 1.46403,-6.71506 -0.45676,0.20376 -0.97092,0.30419 -1.54341,0.30419 -0.57076,0 -0.98109,-0.0217 -1.23018,-0.0668 -0.18826,0.85518 -0.37421,1.71487 -0.56232,2.58006 -0.18673,0.86519 -0.28028,1.66921 -0.28028,2.41192 z"
       id="path115-6"
       inkscape:connector-curvature="0"
       style="fill:#231f20"
       inkscape:export-filename="/home/wm/git-repositories/padrinorb-website/img/logo-navigation.png"
       inkscape:export-xdpi="47.617783"
       inkscape:export-ydpi="47.617783" />
    <path
       d="m 306.72602,546.57055 c -2.0796,0 -3.11808,-2.10224 -3.11808,-6.30852 0,-2.29411 0.26064,-4.37438 0.78011,-6.24183 0.80973,-2.8788 1.72502,-4.31957 2.7441,-4.31957 0.60198,0 1.07991,0.43848 1.43284,1.31653 0.29221,0.67421 0.42719,1.33842 0.40528,1.98984 0,0.89994 -0.24909,2.48595 -0.74897,4.75719 -0.47785,1.98074 -0.71597,3.20591 -0.71597,3.67734 0,0.47327 0.10895,0.7994 0.32686,0.97848 0.21791,0.17992 0.47793,0.27024 0.78023,0.27024 0.29953,0 0.68133,-0.21352 1.13813,-0.64131 0.45675,-0.42764 0.91355,-0.89441 1.372,-1.39962 0.45684,-0.50709 0.87733,-0.97213 1.26318,-1.40064 0.38422,-0.42663 0.64844,-0.6404 0.79451,-0.6404 0.29029,0 0.43736,0.38278 0.43736,1.14749 0,1.5742 -0.73377,3.10905 -2.19868,4.60553 -1.46575,1.49558 -3.03026,2.23288 -4.69279,2.2091 z m 1.2783,-19.60162 c -0.56059,-0.89903 -0.84091,-1.86657 -0.84091,-2.90167 0,-1.03517 0.15015,-1.89486 0.45172,-2.5819 0.29952,-0.6852 0.58677,-1.19225 0.85781,-1.51751 0.26834,-0.32515 0.58092,-0.48968 0.93469,-0.48968 0.58177,0 1.1111,0.46775 1.58984,1.40053 0.47878,0.93286 0.71771,1.71488 0.71771,2.34437 0,1.17032 -0.37922,2.0867 -1.13813,2.75 -0.75909,0.66418 -1.61609,0.99586 -2.57273,0.99586 z"
       id="path117-5"
       inkscape:connector-curvature="0"
       style="fill:#231f20"
       inkscape:export-filename="/home/wm/git-repositories/padrinorb-website/img/logo-navigation.png"
       inkscape:export-xdpi="47.617783"
       inkscape:export-ydpi="47.617783" />
    <path
       d="m 316.20365,529.6339 c 0.7489,0 1.45479,0.7766 2.12091,2.32793 0.97611,-1.10093 2.18685,-1.6527 3.6332,-1.6527 1.44462,0 2.52958,0.34249 3.25826,1.02873 0.72699,0.68607 1.09004,1.65361 1.09004,2.90157 0,1.24803 -0.15015,2.51344 -0.45172,3.79518 -0.30145,1.28185 -0.51924,2.1991 -0.65437,2.75004 -0.13514,0.55178 -0.2029,1.00771 -0.2029,1.36585 0,0.36092 0.11435,0.54087 0.34265,0.54087 0.31146,0 0.69572,-0.21388 1.15418,-0.64138 0.45676,-0.42753 0.91355,-0.89441 1.37205,-1.39966 0.45679,-0.50705 0.87725,-0.97209 1.26143,-1.4006 0.38589,-0.42663 0.65015,-0.64044 0.79618,-0.64044 0.29028,0 0.4357,0.38281 0.4357,1.14749 0,1.5742 -0.71767,3.09261 -2.15051,4.55441 -2.41227,1.5303 -3.94975,2.29411 -4.61595,2.29411 -0.0612,0 -0.10395,-0.0108 -0.1232,-0.0325 -1.66422,0 -2.495,-1.43803 -2.495,-4.31868 0,-1.23705 0.10895,-2.37359 0.3284,-3.40782 0.21791,-1.03329 0.37729,-1.78792 0.48294,-2.26033 0.10395,-0.4723 0.15515,-0.95562 0.15515,-1.45082 0,-0.8094 -0.43231,-1.21414 -1.2927,-1.21414 -0.8637,0 -1.68363,0.69155 -2.46374,2.07481 -0.78016,1.38326 -1.30445,2.8167 -1.57464,4.3013 v 0.23664 c 0,0.76471 0.10857,1.55132 0.32841,2.36084 0.2179,0.81038 0.32686,1.37224 0.32686,1.68832 0,0.76381 -0.88399,1.51754 -2.65035,2.26029 -0.26988,0.112 -0.50993,0.16908 -0.71767,0.16908 -0.51928,0 -0.87895,-0.29227 -1.07483,-0.87707 -0.19751,-0.58473 -0.29722,-1.49652 -0.29722,-2.73263 0,-3.19398 0.11434,-5.49998 0.34265,-6.91612 0.31146,-2.11412 1.01912,-4.08294 2.12098,-5.90468 0.37306,-0.63129 0.77846,-0.94647 1.21412,-0.94647 z"
       id="path119-0"
       inkscape:connector-curvature="0"
       style="fill:#231f20"
       inkscape:export-filename="/home/wm/git-repositories/padrinorb-website/img/logo-navigation.png"
       inkscape:export-xdpi="47.617783"
       inkscape:export-ydpi="47.617783" />
    <path
       d="m 341.39851,543.60132 c -1.64228,2.09215 -3.61291,3.13917 -5.90868,3.13917 -2.29739,0 -4.01732,-0.63498 -5.16134,-1.90671 -1.14324,-1.27087 -1.70387,-2.85048 -1.68366,-4.73982 -0.0192,-2.67695 0.75821,-4.98194 2.33966,-6.91611 1.57806,-1.9341 3.64749,-2.90164 6.20413,-2.90164 1.1643,0 2.09904,0.15716 2.80658,0.4723 1.2251,0.53993 1.83897,1.04702 1.83897,1.51751 0,0.36092 -0.85788,0.54636 -2.57104,0.5564 -1.71481,0.0145 -3.1493,0.6533 -4.30437,1.92319 -1.15252,1.27087 -1.73001,2.87429 -1.73001,4.80835 0,1.01234 0.27527,1.86105 0.82658,2.54722 0.55135,0.68611 1.32897,1.02965 2.33877,1.02965 1.00731,0 1.84571,-0.22472 2.51022,-0.6752 -1.47589,-1.07985 -2.213,-2.64307 -2.213,-4.69053 -0.0231,-1.0799 0.3361,-2.06293 1.07487,-2.95095 0.73708,-0.88896 1.68351,-1.33843 2.83777,-1.35035 1.15248,-0.0108 1.97911,0.33274 2.47895,1.02874 0.49814,0.69802 0.74889,1.59153 0.74889,2.68331 0,1.09175 -0.24062,2.24379 -0.71763,3.45801 h 0.18672 c 0.91525,-0.0217 1.70384,-0.37089 2.37007,-1.04702 0.2491,-0.26951 0.46181,-0.50521 0.63998,-0.70803 0.17633,-0.20196 0.35805,-0.30348 0.54543,-0.30348 0.29067,0 0.43566,0.37093 0.43566,1.11368 0,1.37224 -0.37383,2.40195 -1.12126,3.08711 -0.74894,0.68708 -1.57468,1.02968 -2.48065,1.02968 -0.90512,-9e-4 -1.66842,-0.0686 -2.29145,-0.20448 z m -0.28105,-3.91304 c 0.35305,-0.81038 0.52937,-1.59702 0.52937,-2.3617 0,-0.76472 -0.22907,-1.14659 -0.68556,-1.14659 -0.18672,0 -0.34264,0.14632 -0.46862,0.43762 -0.12358,0.29227 -0.18672,0.57374 -0.18672,0.84329 7.7e-4,0.90085 0.27104,1.64266 0.81138,2.22738 z"
       id="path121-1"
       inkscape:connector-curvature="0"
       style="fill:#231f20"
       inkscape:export-filename="/home/wm/git-repositories/padrinorb-website/img/logo-navigation.png"
       inkscape:export-xdpi="47.617783"
       inkscape:export-ydpi="47.617783" />
  </g>
</svg>
